<?xml version="1.0" standalone="no"?>
<!DOCTYPE svg PUBLIC "-//W3C//DTD SVG 20010904//EN"
 "http://www.w3.org/TR/2001/REC-SVG-20010904/DTD/svg10.dtd">
<svg version="1.0" xmlns="http://www.w3.org/2000/svg"
 width="1707.000000pt" height="1707.000000pt" viewBox="0 0 1707.000000 1707.000000"
 preserveAspectRatio="xMidYMid meet">
<metadata>
Created by potrace 1.14, written by Peter Selinger 2001-2017
</metadata>
<g transform="translate(0.000000,1707.000000) scale(0.100000,-0.100000)"
fill="#000000" stroke="none">
<path d="M9555 15843 c-50 -15 -68 -29 -58 -46 3 -5 -3 -8 -13 -7 -11 1 -21 1
-24 0 -3 -1 -13 -3 -24 -5 -10 -2 -25 -13 -33 -25 -10 -14 -21 -19 -34 -15
-23 8 -69 -19 -69 -39 0 -16 -27 -29 -35 -17 -8 14 -41 2 -62 -22 -13 -14 -14
-18 -3 -13 8 4 6 0 -5 -9 -11 -9 -29 -14 -40 -11 -14 4 -28 -4 -47 -27 -19
-22 -30 -28 -36 -20 -11 17 -70 -13 -68 -35 1 -13 -8 -17 -37 -18 -38 -1 -62
-15 -62 -37 -1 -7 -6 -11 -13 -9 -7 1 -12 -2 -12 -7 0 -5 -15 -8 -32 -7 -26 1
-33 -3 -32 -17 1 -10 0 -16 -3 -13 -3 3 -13 -2 -21 -11 -11 -10 -17 -12 -20
-4 -6 19 -23 13 -53 -20 -19 -20 -41 -32 -62 -34 -48 -4 -49 -4 -43 -14 9 -13
-15 -28 -58 -35 -26 -5 -40 -14 -43 -27 -3 -10 -15 -20 -27 -21 -11 0 -25 -2
-31 -3 -5 -2 -15 -3 -21 -4 -7 0 -14 -11 -17 -22 -4 -15 -11 -20 -21 -16 -9 4
-16 2 -16 -3 0 -6 -10 -10 -23 -10 -13 0 -32 -8 -43 -19 -11 -10 -37 -24 -57
-30 -20 -7 -41 -20 -46 -28 -5 -9 -15 -14 -24 -10 -9 3 -21 -1 -27 -9 -7 -8
-20 -14 -30 -14 -10 0 -20 -9 -23 -19 -3 -14 -17 -21 -50 -26 -27 -4 -48 -13
-51 -22 -4 -9 -14 -13 -25 -10 -12 3 -22 -1 -25 -9 -3 -8 -14 -14 -25 -14 -10
0 -22 -7 -25 -15 -3 -9 -11 -15 -18 -14 -27 3 -39 -1 -32 -13 4 -6 3 -8 -3 -5
-5 3 -21 0 -36 -8 -14 -7 -28 -11 -31 -7 -3 3 -6 0 -6 -6 0 -7 -7 -12 -15 -12
-8 0 -15 -5 -15 -11 0 -5 -4 -8 -8 -5 -11 7 -92 -31 -92 -44 0 -5 -9 -10 -19
-10 -11 0 -21 -5 -23 -11 -2 -6 -15 -13 -28 -14 -40 -4 -41 -5 -34 -16 5 -9
-1 -10 -20 -5 -20 5 -26 3 -26 -10 0 -12 -6 -15 -24 -10 -16 4 -26 1 -30 -10
-4 -10 -2 -13 7 -8 9 5 9 4 1 -5 -9 -10 -17 -10 -34 -1 -19 10 -22 9 -27 -9
-3 -11 -9 -18 -14 -16 -7 5 -32 -6 -139 -60 -14 -7 -28 -14 -32 -14 -5 -1 -8
-3 -8 -6 1 -13 -26 -32 -38 -27 -7 2 -18 -3 -25 -11 -11 -14 -16 -13 -45 13
-18 17 -30 30 -28 30 2 0 -10 15 -27 33 -58 61 -87 97 -87 108 0 5 -4 7 -10 4
-5 -3 -10 -2 -10 4 0 5 -18 28 -40 51 -22 23 -40 46 -40 51 0 6 -4 7 -10 4 -5
-3 -10 -2 -10 4 0 5 -10 21 -22 35 -13 14 -39 44 -58 66 -63 74 -118 130 -129
130 -5 0 -17 7 -25 16 -9 8 -16 11 -16 6 0 -5 -17 -13 -37 -17 -23 -4 -49 -18
-66 -37 -24 -26 -39 -34 -69 -37 -4 -1 -5 -8 -2 -16 4 -10 0 -15 -15 -15 -12
0 -21 -6 -21 -13 0 -8 -12 -19 -26 -25 -14 -7 -23 -16 -20 -21 3 -5 -5 -12
-19 -15 -14 -4 -25 -13 -25 -22 0 -8 -4 -13 -9 -10 -5 3 -23 -8 -41 -24 -18
-17 -28 -30 -24 -30 9 0 -13 -14 -63 -41 -12 -6 -24 -22 -27 -34 -3 -12 -15
-25 -26 -28 -11 -3 -20 -9 -19 -14 3 -20 -2 -25 -16 -13 -15 12 -20 4 -16 -22
0 -5 -4 -9 -9 -9 -6 -1 -14 -3 -20 -4 -5 -1 -14 -3 -20 -4 -5 0 -7 -8 -4 -16
4 -10 0 -15 -15 -15 -15 0 -21 -5 -19 -17 2 -13 -3 -17 -19 -16 -14 2 -23 -3
-23 -11 0 -7 -12 -18 -26 -25 -15 -6 -24 -15 -20 -18 3 -3 -4 -11 -17 -18 -12
-6 -21 -17 -20 -23 2 -6 -6 -9 -17 -7 -12 2 -21 -3 -25 -15 -3 -11 -15 -22
-26 -25 -11 -4 -18 -12 -16 -18 5 -14 -18 -39 -27 -29 -4 3 -9 -4 -13 -16 -3
-12 -10 -22 -17 -21 -26 3 -36 -2 -36 -20 0 -12 -7 -18 -17 -17 -10 0 -18 -6
-18 -14 0 -8 -9 -15 -20 -15 -14 0 -19 -6 -17 -20 2 -11 1 -17 -4 -13 -4 4
-13 3 -21 -3 -7 -6 -13 -9 -13 -6 0 3 -12 -6 -27 -21 -15 -15 -27 -30 -25 -34
1 -5 -3 -8 -9 -8 -13 0 -40 -26 -33 -32 3 -3 -9 -8 -26 -12 -17 -3 -29 -10
-26 -15 4 -5 -2 -12 -13 -16 -13 -4 -18 -13 -16 -25 3 -14 -2 -20 -15 -20 -10
0 -21 -9 -25 -19 -4 -13 -12 -17 -25 -14 -18 5 -25 -5 -21 -29 0 -5 -10 -8
-24 -8 -18 0 -23 -4 -19 -15 6 -13 -6 -20 -28 -16 -8 1 -12 -15 -9 -31 0 -5
-7 -8 -18 -8 -22 0 -44 -23 -33 -35 4 -5 2 -5 -5 -1 -6 3 -18 -2 -25 -12 -9
-13 -25 -18 -53 -18 -27 1 -39 -3 -38 -11 3 -15 -4 -16 -69 -14 -36 2 -48 -1
-48 -12 0 -16 -47 -29 -56 -16 -9 15 -39 10 -62 -11 -23 -22 -52 -26 -69 -9
-7 7 -17 4 -34 -13 -21 -20 -29 -22 -62 -14 -33 9 -40 7 -65 -16 -21 -21 -29
-24 -38 -14 -14 15 -74 9 -71 -8 1 -7 -13 -10 -41 -8 -31 3 -49 -2 -68 -17
-15 -11 -31 -18 -37 -14 -20 12 -67 10 -67 -3 0 -18 -26 -24 -76 -17 -35 5
-44 3 -42 -8 2 -9 -5 -14 -19 -13 -14 1 -23 -4 -23 -13 0 -7 -7 -16 -15 -19
-8 -4 -15 -15 -15 -26 0 -11 -5 -28 -10 -39 -8 -14 -7 -19 2 -19 10 0 9 -3 -1
-9 -13 -8 -13 -12 -1 -26 16 -19 21 -53 8 -61 -14 -9 -9 -34 8 -34 8 0 13 -4
10 -9 -4 -5 0 -11 6 -14 10 -3 11 -9 0 -26 -17 -30 -15 -49 9 -61 11 -7 18
-17 16 -25 -3 -7 -1 -17 5 -23 6 -6 6 -12 -1 -16 -18 -11 -13 -37 11 -58 17
-15 19 -21 9 -27 -7 -5 -12 -12 -12 -16 1 -5 -6 -10 -15 -11 -9 -1 -25 -12
-35 -23 -11 -11 -26 -18 -34 -15 -9 4 -15 0 -15 -10 0 -10 -8 -15 -22 -13 -15
1 -22 -3 -20 -11 2 -9 -6 -12 -20 -11 -28 4 -51 -9 -42 -23 4 -6 -1 -6 -14 1
-27 15 -32 14 -32 -4 0 -9 -10 -15 -26 -15 -19 0 -25 -4 -21 -14 4 -11 0 -13
-16 -10 -11 2 -31 -3 -44 -11 -12 -8 -30 -15 -39 -15 -9 0 -14 -6 -11 -14 4
-9 -2 -12 -19 -10 -13 1 -28 -4 -32 -13 -5 -8 -12 -14 -15 -14 -26 4 -36 -2
-42 -20 -5 -15 -10 -18 -20 -9 -11 9 -16 6 -25 -10 -6 -11 -16 -18 -21 -14 -6
3 -18 -1 -28 -10 -10 -9 -25 -14 -35 -10 -11 4 -16 1 -16 -11 0 -9 -7 -16 -17
-14 -32 3 -43 -1 -40 -13 1 -8 -6 -12 -17 -10 -11 2 -26 -4 -33 -13 -6 -10
-19 -15 -27 -12 -8 3 -20 -1 -26 -9 -7 -8 -19 -14 -27 -14 -8 0 -21 -7 -30
-15 -8 -8 -18 -13 -23 -10 -4 3 -13 -2 -20 -10 -7 -8 -18 -15 -25 -15 -7 0
-18 -7 -26 -16 -7 -8 -21 -13 -31 -11 -16 5 -23 -4 -19 -26 1 -4 -10 -5 -24
-1 -18 4 -25 2 -25 -8 0 -10 -10 -15 -27 -14 -18 1 -27 -4 -25 -12 2 -9 -4
-12 -16 -8 -11 4 -24 0 -32 -9 -7 -8 -21 -13 -30 -10 -12 4 -19 -1 -23 -15 -5
-19 -9 -20 -27 -10 -18 10 -22 9 -27 -8 -3 -13 -11 -18 -22 -15 -10 2 -23 -2
-30 -11 -7 -8 -18 -13 -25 -10 -8 3 -16 -2 -19 -10 -4 -9 -17 -16 -31 -16 -16
0 -25 -7 -29 -21 -4 -16 -11 -19 -26 -14 -15 5 -21 2 -21 -9 0 -10 -9 -16 -21
-16 -12 0 -28 -8 -35 -17 -10 -15 -15 -16 -25 -5 -14 13 -30 16 -28 5 4 -22
-3 -30 -23 -29 -15 1 -22 -4 -20 -13 2 -10 -4 -12 -23 -7 -23 6 -29 0 -27 -25
1 -3 -12 -3 -29 -1 -17 3 -29 0 -29 -7 0 -6 -8 -11 -19 -11 -10 0 -24 -7 -31
-15 -7 -8 -21 -15 -31 -15 -11 0 -19 -4 -19 -10 0 -5 -11 -10 -24 -10 -16 0
-27 -7 -31 -20 -5 -15 -12 -19 -31 -14 -14 4 -24 2 -23 -2 1 -5 1 -16 0 -24
-1 -11 -4 -11 -13 -2 -17 17 -28 15 -28 -4 0 -12 -7 -15 -26 -11 -20 3 -28 0
-31 -13 -3 -12 -11 -16 -20 -13 -9 4 -21 0 -27 -8 -6 -8 -20 -14 -31 -14 -11
0 -20 -7 -20 -15 0 -9 -8 -14 -18 -12 -21 4 -97 -28 -97 -40 0 -4 -5 -8 -12
-8 -23 0 -88 -34 -88 -46 0 -8 -9 -11 -20 -9 -13 2 -23 -2 -27 -11 -3 -9 -13
-14 -24 -11 -13 3 -19 0 -19 -10 0 -11 -8 -14 -30 -11 -24 4 -30 1 -30 -14 0
-10 -3 -17 -7 -17 -21 3 -33 -2 -33 -15 0 -8 -6 -16 -13 -19 -16 -6 -20 -104
-6 -113 5 -3 7 -10 4 -15 -4 -5 -2 -9 3 -9 10 0 38 -60 34 -72 -1 -5 2 -8 7
-8 8 0 33 -51 33 -67 0 -4 5 -15 13 -23 7 -8 16 -25 19 -37 4 -13 12 -23 17
-23 6 0 7 -5 4 -11 -4 -5 0 -18 8 -27 8 -9 13 -25 12 -34 -2 -11 3 -18 11 -18
9 0 12 -4 9 -10 -3 -5 -2 -10 3 -10 6 0 8 -9 5 -20 -4 -14 -1 -20 8 -18 9 2
15 -7 17 -24 2 -16 8 -28 13 -28 5 0 9 -9 9 -21 0 -11 5 -17 10 -14 9 6 15 -8
11 -29 -1 -5 6 -17 15 -27 9 -10 14 -25 10 -34 -3 -9 1 -18 9 -21 8 -4 12 -10
9 -15 -3 -5 4 -21 15 -36 16 -19 18 -29 10 -39 -6 -7 -8 -18 -4 -24 5 -9 -6
-14 -26 -12 -3 1 -30 -22 -60 -49 -29 -28 -62 -57 -74 -65 -11 -8 -20 -20 -20
-27 0 -6 -8 -11 -18 -11 -11 1 -16 -4 -15 -15 2 -10 -5 -17 -20 -19 -15 -2
-22 -9 -20 -20 2 -10 -4 -17 -12 -17 -22 -1 -41 -15 -35 -26 4 -5 -3 -9 -15
-9 -11 0 -24 -9 -28 -19 -7 -19 -10 -21 -32 -21 -6 0 -9 -3 -9 -7 4 -22 -2
-32 -15 -27 -9 3 -20 -3 -28 -15 -7 -12 -16 -21 -21 -21 -4 0 -23 -15 -41 -33
-19 -19 -41 -37 -50 -40 -9 -4 -16 -10 -15 -14 4 -21 -3 -31 -19 -29 -10 0
-16 -6 -16 -16 1 -13 -6 -18 -23 -18 -18 0 -24 -4 -20 -14 4 -10 -4 -17 -24
-21 -16 -4 -29 -13 -29 -21 0 -9 -5 -12 -11 -9 -6 4 -13 -2 -16 -14 -3 -12
-13 -21 -23 -21 -10 0 -21 -8 -25 -19 -3 -10 -13 -18 -23 -17 -10 0 -16 -6
-16 -16 1 -10 -2 -15 -7 -13 -4 3 -17 -3 -29 -15 -11 -11 -23 -20 -28 -20 -4
0 -13 -9 -20 -20 -7 -11 -19 -20 -27 -20 -8 0 -15 -4 -15 -10 0 -20 -2 -25
-12 -38 -9 -11 -13 -11 -19 0 -7 10 -9 10 -9 1 0 -7 0 -16 -1 -20 0 -5 -11
-14 -25 -21 -13 -7 -22 -17 -18 -23 3 -6 -5 -8 -20 -5 -20 4 -25 0 -28 -17 -2
-15 -9 -21 -20 -19 -16 3 -23 -9 -19 -32 1 -5 -6 -6 -15 -2 -11 4 -18 0 -21
-14 -3 -11 -12 -20 -19 -20 -8 0 -22 -9 -31 -20 -10 -11 -23 -20 -30 -20 -7 0
-12 -4 -11 -9 3 -10 -70 -71 -85 -71 -5 0 -4 -7 3 -15 10 -12 9 -15 -6 -16
-11 -1 -22 -1 -26 0 -5 0 -8 -8 -8 -20 0 -15 -5 -19 -15 -15 -11 4 -19 -3 -27
-22 -6 -15 -12 -22 -15 -15 -4 10 -8 9 -19 -1 -8 -8 -14 -19 -14 -25 0 -6 -9
-11 -20 -11 -14 0 -20 -6 -18 -17 2 -12 -3 -17 -15 -15 -15 2 -21 -7 -19 -28
0 -3 -8 -7 -19 -7 -11 -1 -29 -13 -40 -28 -12 -14 -24 -23 -29 -20 -4 3 -10
-5 -13 -17 -4 -12 -9 -19 -12 -16 -8 8 -61 -42 -57 -53 1 -5 -9 -14 -23 -19
-14 -5 -25 -17 -25 -25 0 -10 -7 -15 -17 -13 -10 2 -18 -3 -18 -11 0 -15 -34
-32 -48 -24 -5 3 -7 -1 -5 -8 1 -8 -6 -26 -16 -41 -24 -36 -26 -56 -9 -103 14
-39 43 -75 63 -75 5 0 10 -5 10 -11 0 -11 11 -25 78 -97 17 -19 32 -39 32 -44
0 -4 7 -8 15 -8 8 0 15 -7 15 -15 0 -7 6 -18 14 -22 7 -4 18 -18 25 -31 7 -12
16 -20 22 -17 5 4 9 3 8 -2 -4 -21 2 -33 15 -33 8 0 17 -9 21 -19 3 -11 15
-23 26 -26 10 -4 17 -11 14 -16 -4 -5 1 -12 9 -15 8 -3 18 -14 21 -25 4 -10
13 -19 21 -19 8 0 14 -6 14 -14 0 -8 16 -31 35 -52 19 -22 35 -42 35 -46 0 -4
9 -9 19 -13 13 -4 18 -12 14 -21 -4 -10 2 -17 16 -21 19 -5 26 -15 22 -36 -1
-5 3 -5 9 -2 14 9 52 -24 43 -38 -3 -5 -1 -7 4 -4 6 4 18 -4 27 -18 18 -28 50
-64 109 -126 21 -21 36 -39 33 -39 -2 0 13 -18 34 -39 21 -21 36 -42 33 -45
-4 -3 1 -6 9 -6 9 0 22 -14 30 -31 9 -17 19 -31 24 -32 5 -1 8 -5 6 -10 -1 -4
9 -12 22 -18 16 -8 23 -18 21 -31 -2 -10 0 -16 5 -13 4 3 22 -8 38 -25 17 -16
28 -30 25 -30 -3 0 12 -18 32 -39 42 -43 53 -76 29 -85 -13 -5 -14 -9 -4 -21
10 -13 9 -15 -9 -15 -12 0 -19 -4 -16 -10 3 -5 1 -10 -4 -10 -6 0 -10 -3 -9
-7 2 -11 -23 -65 -40 -85 -9 -10 -12 -18 -8 -18 4 0 0 -10 -8 -21 -8 -12 -12
-27 -10 -34 3 -7 -4 -16 -16 -20 -15 -5 -18 -10 -11 -19 7 -8 4 -15 -9 -23
-12 -8 -16 -19 -13 -33 3 -11 2 -20 -3 -19 -21 4 -35 -2 -29 -12 4 -5 0 -18
-9 -28 -10 -11 -14 -25 -10 -36 5 -12 4 -16 -3 -12 -14 9 -37 -19 -28 -33 4
-7 -2 -14 -13 -17 -14 -3 -19 -11 -17 -24 2 -12 -2 -19 -11 -19 -8 0 -12 -4
-9 -10 3 -5 0 -10 -7 -10 -10 0 -10 -2 -1 -8 9 -6 7 -12 -8 -25 -11 -10 -18
-21 -15 -26 3 -5 -3 -16 -14 -26 -14 -13 -17 -22 -10 -35 7 -14 5 -19 -10 -23
-22 -6 -28 -27 -7 -27 6 0 -1 -9 -18 -20 -16 -11 -25 -20 -18 -20 7 0 10 -7 7
-15 -4 -8 -9 -13 -13 -11 -9 6 -26 -16 -26 -34 0 -8 -6 -14 -13 -12 -6 1 -12
-5 -12 -13 0 -8 6 -15 12 -15 7 0 2 -7 -10 -16 -13 -9 -21 -22 -18 -30 3 -9
-4 -19 -18 -26 -15 -6 -22 -16 -19 -24 3 -8 0 -14 -7 -14 -6 0 -8 -4 -5 -10 3
-5 2 -10 -4 -10 -6 0 -8 -7 -5 -15 4 -9 0 -15 -8 -15 -7 0 -14 -10 -15 -21 -1
-12 -9 -29 -18 -39 -8 -9 -13 -24 -9 -34 4 -11 1 -16 -10 -16 -10 0 -16 -9
-16 -24 0 -13 -7 -26 -15 -30 -9 -3 -12 -12 -9 -21 5 -11 0 -18 -16 -22 -15
-4 -20 -11 -17 -25 3 -11 -1 -22 -9 -25 -8 -3 -13 -12 -10 -20 3 -7 -1 -16 -9
-19 -8 -4 -15 -14 -15 -25 0 -10 -9 -25 -21 -33 -12 -8 -18 -19 -15 -25 4 -5
2 -12 -3 -15 -11 -7 -53 -86 -45 -86 3 0 -2 -7 -11 -16 -9 -10 -14 -25 -12
-35 3 -12 -2 -20 -14 -24 -11 -4 -19 -12 -18 -18 3 -25 -1 -38 -10 -32 -5 3
-12 1 -16 -5 -3 -6 1 -13 10 -16 14 -6 12 -8 -7 -18 -13 -6 -23 -18 -23 -26 0
-8 -3 -19 -7 -25 -9 -14 -8 -85 1 -85 4 0 13 -11 19 -24 6 -13 21 -28 34 -31
13 -4 25 -10 28 -14 3 -3 37 -22 75 -41 39 -19 72 -37 75 -40 3 -3 14 -6 24
-8 10 -2 25 -10 33 -18 8 -8 19 -11 25 -8 7 4 8 2 4 -4 -4 -7 4 -14 21 -18 15
-4 31 -12 35 -18 4 -6 11 -12 15 -12 20 -3 73 -29 73 -36 0 -4 7 -8 15 -8 16
0 50 -17 77 -39 10 -7 25 -10 35 -7 9 4 14 4 11 0 -8 -7 16 -34 30 -34 5 0 15
-6 22 -14 6 -8 18 -12 26 -9 8 3 14 0 14 -6 0 -9 61 -43 83 -45 4 -1 11 -6 15
-11 4 -6 14 -10 22 -10 17 1 128 -53 136 -66 3 -5 14 -9 25 -9 10 0 19 -4 19
-8 0 -9 70 -42 88 -42 7 0 12 -7 12 -16 0 -8 4 -13 9 -9 9 5 70 -24 97 -46 6
-5 13 -7 16 -4 3 3 11 -1 18 -10 7 -8 19 -15 26 -15 8 0 14 -4 14 -10 0 -5 9
-10 20 -10 11 0 20 -4 20 -10 0 -5 8 -10 19 -10 10 0 24 -6 30 -14 7 -8 23
-17 36 -20 14 -4 25 -11 25 -16 0 -5 6 -7 14 -4 8 3 20 -3 27 -14 7 -11 19
-18 27 -14 8 3 19 -2 24 -11 5 -10 15 -17 22 -17 8 0 19 -7 26 -15 7 -8 16
-13 20 -10 5 3 14 -1 22 -8 7 -7 29 -19 48 -27 19 -7 43 -20 52 -28 10 -8 24
-12 32 -9 8 3 17 -1 20 -10 4 -9 9 -13 13 -10 3 4 18 -2 32 -11 14 -10 53 -31
86 -47 33 -16 63 -32 66 -37 3 -5 12 -11 20 -12 27 -5 67 -25 74 -36 3 -5 11
-8 16 -5 5 4 9 1 9 -5 0 -6 5 -8 10 -5 6 3 10 1 10 -5 0 -6 4 -8 10 -5 6 3 10
1 10 -6 0 -7 3 -10 6 -6 4 3 15 -4 26 -16 11 -12 17 -16 13 -9 -7 13 66 -26
76 -41 3 -5 8 -8 10 -6 9 5 49 -13 49 -22 0 -5 3 -8 7 -7 15 4 53 -13 53 -23
0 -6 4 -8 9 -4 5 3 15 0 23 -7 7 -7 20 -14 28 -16 8 -2 17 -8 18 -13 2 -5 10
-9 18 -9 8 0 17 -7 20 -15 4 -9 11 -15 18 -14 18 3 46 -12 41 -22 -3 -4 4 -6
15 -4 12 2 23 -2 27 -11 3 -8 12 -13 20 -10 7 3 16 -1 19 -9 4 -9 19 -15 35
-15 16 0 29 -5 29 -11 0 -5 5 -7 10 -4 6 3 10 1 10 -5 0 -6 5 -8 10 -5 6 3 10
1 10 -4 0 -6 5 -11 11 -11 6 0 23 -9 37 -19 15 -10 30 -20 34 -21 29 -7 68
-26 68 -32 0 -4 6 -8 14 -8 7 0 46 -19 87 -41 120 -67 122 -68 131 -63 5 3 7
0 6 -8 -2 -8 4 -12 15 -10 9 2 17 -2 17 -8 0 -6 4 -9 9 -6 5 3 12 -1 15 -9 3
-8 9 -14 13 -14 15 3 73 -23 73 -32 0 -5 12 -9 26 -9 14 0 23 -4 19 -10 -5 -9
7 -14 26 -12 4 1 15 -8 24 -18 10 -11 26 -20 37 -20 10 0 18 -4 18 -10 0 -5 9
-10 21 -10 11 0 17 -4 14 -10 -5 -8 19 -15 28 -7 1 1 13 -8 26 -20 13 -12 28
-20 34 -16 5 3 13 -1 18 -8 4 -8 14 -14 21 -15 7 0 21 -2 31 -2 10 -1 15 -6
12 -12 -3 -5 3 -10 14 -10 10 0 21 -5 23 -10 2 -6 13 -12 25 -13 13 0 25 -7
28 -15 3 -7 9 -10 15 -7 5 3 10 1 10 -5 0 -6 4 -9 9 -6 5 4 11 2 13 -3 1 -5
10 -11 18 -13 8 -2 21 -9 28 -16 8 -7 18 -10 23 -7 5 4 9 1 9 -5 0 -6 4 -8 10
-5 5 3 10 2 10 -3 0 -6 20 -18 45 -29 25 -10 45 -22 45 -26 0 -5 5 -5 10 -2 6
3 10 1 10 -5 0 -6 4 -9 9 -6 5 3 12 -1 15 -10 4 -9 9 -14 12 -11 4 3 30 -7 59
-23 29 -16 55 -26 59 -23 3 3 8 -1 12 -10 3 -9 14 -14 25 -12 11 2 17 0 14 -6
-4 -5 -1 -9 5 -9 6 0 9 -4 5 -9 -3 -6 4 -8 15 -6 12 2 23 -2 27 -10 3 -8 13
-15 24 -15 10 0 23 -8 28 -17 6 -10 11 -15 11 -10 0 4 10 1 23 -8 13 -8 27
-12 30 -8 4 3 7 1 7 -6 0 -7 4 -10 9 -7 5 3 12 -1 15 -10 3 -8 10 -13 15 -10
5 4 16 -1 24 -9 9 -8 22 -15 31 -15 8 0 18 -4 21 -10 3 -5 14 -10 25 -10 10 0
20 -7 24 -15 3 -8 12 -15 21 -15 9 0 55 -20 103 -45 63 -33 104 -63 149 -110
33 -36 60 -65 58 -65 -2 0 10 -13 25 -30 15 -16 33 -30 39 -30 6 0 10 -3 10
-7 -3 -20 2 -34 11 -28 6 3 10 2 10 -4 0 -10 11 -24 84 -103 19 -21 32 -38 29
-38 -3 0 0 -7 7 -15 7 -8 17 -12 23 -8 5 3 7 2 4 -4 -3 -5 11 -25 32 -44 20
-19 36 -40 33 -47 -2 -6 8 -14 21 -17 17 -5 24 -13 23 -28 0 -12 5 -22 12 -22
13 0 142 -132 142 -146 0 -5 9 -13 21 -19 11 -7 19 -14 16 -16 -2 -3 12 -22
32 -43 20 -21 47 -52 60 -69 13 -18 27 -30 31 -27 4 3 11 -6 14 -20 4 -14 13
-25 21 -25 8 0 15 -5 15 -10 0 -6 13 -24 30 -40 17 -16 30 -32 30 -36 0 -4 8
-14 18 -23 15 -13 18 -32 19 -106 1 -49 -2 -94 -5 -100 -12 -20 -3 -97 14
-116 9 -10 13 -19 9 -19 -5 0 -4 -5 2 -11 7 -7 8 -21 2 -43 -8 -25 -6 -34 8
-46 12 -10 17 -26 15 -48 -2 -24 2 -38 15 -48 10 -7 14 -14 9 -14 -5 0 -3 -7
4 -15 7 -8 9 -15 6 -15 -4 0 0 -10 8 -21 8 -12 12 -27 10 -34 -3 -6 2 -18 11
-25 8 -7 15 -21 15 -31 0 -11 5 -19 11 -19 5 0 7 -4 4 -10 -3 -5 -1 -10 5 -10
6 0 9 -4 6 -9 -3 -5 1 -14 8 -21 8 -6 18 -25 21 -42 4 -16 14 -38 24 -48 32
-36 41 -49 41 -60 0 -5 4 -10 9 -10 5 0 12 -11 15 -24 3 -13 22 -35 41 -50 19
-15 35 -33 35 -39 0 -27 130 -167 154 -167 17 0 66 -42 66 -56 0 -11 39 -37
60 -40 7 -2 21 -12 30 -24 8 -11 26 -22 39 -25 22 -4 35 -16 43 -37 2 -4 12
-9 23 -11 30 -4 105 -40 105 -49 0 -4 8 -8 19 -8 10 0 24 -6 31 -14 6 -8 18
-12 25 -10 7 3 19 -4 25 -16 6 -11 15 -18 20 -15 5 3 25 -1 45 -9 19 -8 35
-12 35 -8 0 4 7 -1 15 -12 10 -13 22 -17 40 -14 14 3 25 1 25 -3 0 -5 3 -8 8
-7 4 1 21 -5 39 -15 17 -9 33 -13 35 -8 2 5 19 1 39 -8 25 -12 42 -15 53 -9
10 6 16 5 16 -2 0 -6 5 -8 10 -5 6 3 13 -1 16 -10 4 -9 11 -12 18 -8 18 13 83
8 102 -8 16 -12 17 -12 9 1 -7 12 -6 13 7 3 20 -17 8228 -19 8228 -2 0 5 4 8
8 5 4 -2 14 -1 22 4 8 5 21 5 31 -1 12 -6 20 -5 24 1 4 6 11 8 16 4 5 -3 16 0
24 6 8 7 15 9 15 5 0 -4 6 -2 14 4 10 8 16 9 21 2 4 -7 17 -5 38 6 18 9 42 16
54 14 12 -1 33 5 46 13 13 9 27 13 30 9 4 -3 7 -1 7 6 0 7 6 11 14 8 7 -3 22
0 32 7 15 11 54 23 94 31 3 0 15 6 28 13 12 7 22 10 22 6 0 -3 11 1 25 10 14
9 25 14 25 11 0 -4 7 1 16 9 8 9 24 16 34 16 10 0 20 5 22 11 2 5 12 11 22 13
10 1 24 10 31 19 7 9 15 14 18 10 4 -3 18 6 31 20 14 15 31 27 39 27 8 0 31
16 51 35 21 19 41 35 46 35 5 0 36 26 69 58 80 77 121 112 133 112 5 0 7 4 4
9 -3 5 6 21 19 35 14 15 25 31 25 35 0 5 8 11 18 13 11 3 29 26 41 52 13 25
27 46 31 46 5 0 15 12 23 28 35 68 53 97 60 100 4 2 7 12 7 23 0 10 5 19 10
19 6 0 10 6 10 14 0 8 6 17 13 19 9 4 9 6 -1 6 -11 1 -10 4 1 15 8 8 21 35 28
60 7 26 16 46 20 46 4 0 9 15 12 32 14 80 20 103 29 109 5 3 10 20 10 37 1 18
5 32 11 32 5 0 4 6 -2 14 -10 11 -8 15 6 19 15 4 16 5 1 6 -15 1 -15 4 -3 29
11 22 13 877 10 4982 -2 2725 -4 4961 -6 4968 -1 6 -7 12 -12 12 -5 0 -5 6 2
13 8 10 7 17 -1 25 -7 7 -9 12 -5 12 4 0 0 16 -8 36 -8 20 -16 49 -17 65 -1
16 -6 29 -10 29 -4 0 -8 11 -8 23 0 13 -3 27 -7 31 -5 4 -9 12 -9 17 -1 5 -3
11 -4 14 -1 3 -3 8 -4 13 -1 4 -10 24 -19 46 -9 21 -17 42 -17 47 0 5 -4 9 -9
9 -8 0 -11 8 -20 45 -2 6 -8 16 -14 24 -6 7 -12 20 -13 29 -2 8 -7 18 -12 21
-5 3 -17 21 -26 39 -9 17 -21 32 -26 32 -5 0 -12 11 -16 24 -3 13 -18 35 -32
49 -36 34 -72 77 -72 86 0 12 -58 82 -65 79 -6 -3 -65 47 -135 115 -21 20 -44
37 -51 37 -6 0 -25 14 -41 30 -16 17 -33 28 -38 25 -6 -3 -20 4 -32 17 -13 13
-30 23 -38 23 -20 -2 -41 15 -34 26 3 6 -6 8 -20 5 -18 -3 -27 1 -31 14 -4 12
-12 16 -25 13 -12 -3 -22 1 -26 10 -3 9 -14 14 -24 12 -12 -2 -21 3 -25 15 -4
12 -14 17 -30 15 -16 -1 -25 3 -25 12 0 10 -10 13 -32 11 -22 -2 -32 1 -31 10
2 6 -2 13 -7 13 -6 1 -16 2 -22 3 -7 1 -16 -2 -19 -8 -4 -5 -15 1 -25 13 -14
16 -25 20 -50 15 -26 -5 -33 -2 -38 13 -6 19 -30 24 -53 10 -14 -9 -63 9 -63
23 0 12 -50 13 -70 0 -8 -5 -19 -5 -25 0 -11 9 -15 10 -46 10 -11 0 -17 5 -14
10 4 6 -6 10 -22 11 -123 4 -145 4 -149 -3 -3 -5 -10 -6 -15 -3 -5 4 -9 0 -9
-7 0 -8 -3 -9 -8 -3 -4 7 -342 10 -977 10 -635 0 -973 -3 -977 -10 -5 -7 -8
-7 -8 0 0 6 -33 9 -80 9 -56 -1 -85 3 -94 12 -8 7 -16 10 -20 7 -3 -4 -7 -2
-7 3 -1 5 -3 24 -5 42 -2 18 -9 42 -14 53 -6 11 -8 24 -5 29 3 5 1 12 -5 15
-8 5 -8 11 1 21 8 10 7 17 -5 29 -19 20 -21 29 -3 20 6 -4 5 -1 -3 7 -17 14
-18 20 -22 72 -1 20 -6 36 -11 36 -5 0 -3 8 4 17 8 10 9 14 2 10 -6 -4 -14 -3
-18 3 -3 5 -1 10 6 10 8 0 8 4 2 13 -6 6 -9 20 -8 30 2 9 0 17 -4 17 -8 0 -10
7 -13 63 -2 20 -7 37 -12 37 -4 0 -6 9 -3 20 3 11 1 23 -4 26 -5 3 -9 11 -8
17 3 16 -10 68 -21 89 -6 11 -5 18 3 21 8 4 8 6 -2 6 -11 1 -11 4 0 18 11 13
11 17 1 20 -6 3 -10 9 -6 14 3 5 0 9 -6 9 -6 0 -8 5 -5 10 3 6 1 10 -4 10 -6
0 -11 5 -11 11 0 5 6 7 13 3 9 -6 9 -5 0 7 -6 8 -13 26 -15 39 -2 14 -7 31
-11 38 -5 6 -9 30 -9 52 0 22 -5 40 -10 40 -7 0 -6 5 1 13 8 10 7 17 -1 25
-14 14 -19 42 -8 42 4 0 6 9 3 20 -3 11 -9 20 -14 20 -9 0 -24 63 -22 93 0 9
-3 17 -7 17 -5 0 -7 11 -5 25 1 14 -2 25 -8 25 -5 0 -7 9 -4 20 3 11 1 23 -4
26 -5 3 -9 10 -9 15 0 6 5 7 11 4 6 -4 5 2 -3 14 -7 12 -15 21 -18 21 -3 0 -4
17 -4 37 1 21 -3 43 -8 49 -5 7 -10 30 -12 51 -1 22 -6 45 -11 52 -4 7 -8 32
-9 56 0 23 -7 49 -13 57 -7 8 -10 18 -6 21 3 4 1 7 -6 7 -8 0 -11 8 -8 19 7
28 -41 51 -107 51 -31 0 -56 -4 -56 -10 0 -5 -7 -10 -15 -10 -8 0 -15 -5 -15
-11 0 -6 -5 -7 -12 -2 -25 15 -69 9 -79 -10 -9 -16 -13 -17 -32 -4 -23 15 -65
7 -78 -15 -10 -16 -42 -19 -51 -5 -8 14 -64 -3 -61 -18 3 -14 -41 -29 -45 -16
-6 18 -41 13 -64 -9 -15 -14 -26 -17 -38 -10 -19 10 -60 6 -69 -7 -3 -5 -13
-14 -22 -21 -14 -10 -20 -10 -33 3 -13 13 -20 14 -38 4 -13 -7 -26 -18 -31
-25 -4 -7 -17 -11 -30 -8 -54 13 -67 12 -77 -6 -5 -10 -18 -17 -27 -15 -10 2
-18 4 -18 5 0 1 -12 3 -28 4 -19 1 -29 -4 -33 -17 -3 -10 -8 -16 -11 -13 -4 3
-13 0 -21 -7 -12 -9 -16 -9 -19 1 -7 18 -41 15 -65 -8 -12 -10 -24 -17 -29
-15 -4 3 -21 7 -39 9 -22 2 -33 -2 -41 -16 -9 -16 -17 -18 -52 -13 -35 5 -46
3 -60 -13 -16 -17 -34 -20 -84 -11 -20 3 -34 -2 -28 -11 7 -12 -4 -14 -62 -10
-24 1 -43 -2 -43 -7 0 -16 -51 -35 -64 -24 -14 11 -57 9 -55 -3 2 -18 -27 -26
-74 -20 -37 5 -47 3 -45 -8 2 -9 -11 -13 -49 -13 -40 0 -56 -5 -68 -20 -9 -11
-13 -14 -9 -6 5 10 3 12 -7 5 -8 -5 -32 -9 -54 -9 -28 0 -39 -4 -37 -13 2 -10
-8 -12 -43 -6 -39 5 -50 3 -70 -16 -17 -16 -28 -19 -40 -13 -24 14 -75 4 -68
-13 4 -10 -7 -12 -46 -10 -36 3 -56 -1 -66 -11 -8 -8 -25 -14 -38 -13 -54 5
-77 0 -77 -17 0 -9 -3 -13 -7 -10 -3 4 -12 2 -20 -4 -9 -9 -13 -8 -13 0 0 16
-51 13 -70 -4 -21 -19 -58 -27 -65 -14 -4 5 -10 7 -14 4 -8 -4 -36 44 -33 58
1 4 -3 7 -8 7 -5 0 -10 7 -10 15 0 8 -4 15 -10 15 -5 0 -10 12 -10 27 0 14 -3
23 -6 20 -10 -10 -42 55 -39 80 1 14 -4 25 -15 28 -9 3 -21 15 -27 28 -6 12
-17 36 -24 52 -8 17 -20 36 -26 43 -7 7 -13 16 -14 20 -3 30 -10 47 -18 50 -6
2 -11 9 -11 17 0 7 -7 18 -15 25 -9 7 -14 18 -12 24 2 6 -2 17 -10 24 -7 8
-11 18 -8 23 4 5 0 9 -8 9 -13 0 -43 74 -39 93 2 5 -2 6 -7 3 -5 -4 -16 7 -24
24 -10 20 -12 30 -4 30 6 0 -3 15 -20 33 -17 17 -35 41 -41 52 -13 25 -43 28
-107 8z m-31 -386 c10 -23 20 -44 21 -47 0 -3 32 -68 70 -145 38 -77 68 -143
67 -147 -1 -5 2 -8 7 -8 5 0 12 -13 16 -30 4 -16 11 -30 16 -30 5 0 9 -7 9
-15 0 -9 7 -27 16 -40 9 -14 14 -31 11 -38 -5 -13 -113 -41 -202 -53 -22 -3
-42 -9 -45 -12 -3 -4 -21 -8 -40 -10 -19 -2 -56 -10 -82 -17 -27 -8 -57 -12
-68 -10 -11 2 -20 0 -20 -4 0 -8 -9 -10 -55 -14 -14 -1 -25 -6 -25 -10 0 -5
-4 -6 -8 -3 -5 3 -26 0 -48 -6 -21 -7 -46 -12 -54 -13 -22 -2 -130 -25 -165
-35 -16 -5 -47 -11 -69 -14 -21 -4 -41 -8 -45 -10 -7 -5 -87 -18 -108 -19 -7
0 -13 -3 -13 -7 0 -4 -6 -7 -12 -7 -25 -2 -83 -12 -98 -17 -8 -3 -26 -7 -40
-10 -51 -8 -183 -37 -189 -40 -3 -2 -24 -7 -46 -10 -22 -4 -49 -9 -60 -13 -11
-3 -31 -7 -45 -9 -14 -1 -25 -3 -25 -4 0 -3 -67 -18 -115 -26 -19 -3 -39 -8
-43 -11 -4 -2 -22 -7 -40 -9 -56 -8 -66 -10 -73 -17 -4 -4 -20 -7 -35 -7 -15
0 -39 -4 -53 -9 -21 -9 -79 -19 -123 -23 -7 -1 -13 -4 -13 -8 0 -3 -19 -7 -42
-9 -23 -1 -46 -5 -52 -9 -13 -8 -31 -12 -71 -15 -16 -1 -35 -6 -41 -9 -6 -4
-26 -10 -45 -13 -45 -7 -125 -24 -174 -37 -22 -6 -50 -12 -62 -13 -11 -2 -31
-6 -43 -10 -19 -6 -20 -5 -8 14 7 11 17 20 23 19 16 -2 116 43 472 213 56 27
104 49 108 49 4 0 13 7 21 15 8 8 21 12 29 9 8 -4 15 -2 15 3 0 5 19 17 43 28
23 10 98 45 167 78 69 33 127 61 130 62 3 0 25 11 49 23 25 12 51 22 58 22 7
0 13 4 13 9 0 4 21 16 48 26 26 10 55 25 65 33 9 8 17 12 17 9 0 -3 22 5 49
18 27 14 53 25 59 25 5 0 15 7 22 15 7 8 16 13 20 10 5 -3 16 2 24 11 9 8 16
12 16 9 0 -4 16 2 36 14 19 12 42 21 50 21 8 0 14 5 14 10 0 6 6 10 13 10 8 0
36 11 63 25 27 14 54 25 61 25 6 0 13 5 15 11 2 5 10 11 18 13 8 1 60 24 115
50 55 27 147 71 205 98 58 27 146 69 195 93 50 24 95 44 100 44 6 1 19 -18 29
-42z m3132 -166 c7 -60 15 -105 20 -113 3 -4 8 -21 10 -36 3 -15 9 -43 14 -62
5 -20 12 -51 14 -70 3 -19 10 -50 15 -68 5 -18 10 -35 10 -37 -1 -21 14 -86
21 -90 5 -3 7 -12 4 -20 -3 -8 0 -31 7 -52 7 -21 13 -52 14 -69 1 -17 6 -37
10 -44 4 -7 10 -27 12 -44 4 -38 8 -57 16 -76 3 -8 8 -31 11 -50 2 -19 8 -46
11 -60 10 -38 35 -152 39 -180 3 -14 12 -56 21 -95 9 -38 18 -86 21 -105 3
-19 9 -46 14 -60 5 -14 11 -38 14 -55 2 -16 7 -44 11 -60 l7 -31 -2764 1
c-2526 0 -2830 -2 -2908 -20 -14 -3 -41 -7 -60 -9 -19 -1 -51 -8 -70 -14 -19
-6 -48 -13 -65 -16 -61 -11 -90 -19 -100 -27 -6 -4 -30 -11 -53 -15 -23 -4
-42 -10 -42 -15 0 -5 -7 -9 -16 -9 -8 0 -25 -5 -37 -12 -12 -7 -26 -13 -32
-14 -21 -4 -124 -55 -130 -64 -3 -6 -13 -10 -22 -10 -18 0 -196 -115 -268
-173 -61 -49 -199 -188 -240 -242 -16 -21 -36 -44 -43 -51 -6 -7 -12 -16 -12
-20 0 -4 -11 -21 -24 -39 -24 -30 -33 -46 -88 -145 -54 -98 -108 -252 -128
-360 -4 -25 -11 -58 -15 -75 -4 -16 -8 -104 -9 -195 -1 -91 -5 -171 -10 -178
-4 -7 -4 -12 1 -12 10 0 10 -336 1 -346 -4 -4 -4 -12 -1 -18 11 -17 10 -250 0
-263 -5 -7 -5 -13 -1 -13 5 0 9 -38 9 -85 0 -47 -4 -85 -8 -85 -5 0 -5 -5 -1
-12 10 -17 12 -158 2 -164 -5 -3 -5 -11 -1 -17 11 -17 11 -250 0 -264 -5 -7
-6 -13 -1 -13 11 0 11 -1090 1 -1107 -5 -7 -4 -13 0 -13 10 0 11 -176 1 -186
-4 -4 -4 -12 -1 -18 11 -17 10 -250 0 -263 -5 -7 -5 -13 -1 -13 11 0 12 -175
2 -186 -4 -4 -4 -12 -1 -18 10 -15 10 -1097 0 -1103 -4 -2 -4 -10 0 -16 11
-17 11 -250 0 -264 -5 -7 -5 -13 -1 -13 5 0 9 -38 9 -85 0 -47 -4 -85 -8 -85
-5 0 -5 -5 -1 -12 10 -17 12 -158 2 -164 -5 -3 -5 -11 -1 -17 11 -17 11 -250
0 -264 -5 -7 -5 -13 -1 -13 13 0 12 -243 -1 -252 -7 -5 -7 -8 0 -8 6 0 10 -72
10 -197 0 -122 -4 -198 -10 -200 -5 -1 -11 7 -11 20 -1 25 -12 92 -14 92 -1 0
-3 11 -5 25 -2 14 -6 36 -10 50 -3 14 -10 48 -16 75 -14 67 -17 80 -19 80 -1
0 -4 11 -5 25 -4 29 -13 65 -15 65 -2 0 -5 22 -11 78 -2 15 -6 27 -9 27 -3 0
-7 16 -8 37 -2 20 -5 40 -8 45 -6 10 -14 45 -18 79 -2 15 -6 31 -9 35 -3 5 -8
25 -11 44 -6 38 -7 42 -31 145 -9 39 -18 86 -21 105 -3 19 -9 46 -14 60 -5 14
-11 41 -13 61 -3 20 -7 41 -10 46 -4 5 -7 26 -9 46 -1 21 -5 37 -8 37 -3 0 -7
11 -8 26 -1 14 -6 34 -12 44 -7 13 -7 21 0 25 7 4 8 11 2 18 -10 12 -23 61
-28 104 -1 12 -5 27 -9 33 -4 6 -9 33 -12 58 -3 26 -9 53 -15 60 -6 6 -8 12
-5 12 3 0 -2 28 -10 63 -8 34 -16 71 -17 82 -2 11 -8 38 -14 60 -6 22 -13 57
-16 79 -4 21 -9 42 -11 47 -3 4 -8 27 -11 51 -3 24 -8 50 -11 58 -11 30 -33
136 -35 165 -1 17 -5 32 -10 35 -4 3 -9 26 -12 50 -4 42 -7 54 -22 98 -4 9 -8
34 -10 55 -2 21 -9 47 -14 57 -6 10 -10 31 -10 46 0 15 -4 41 -9 58 -19 65
-34 132 -36 167 -1 19 -7 44 -12 55 -6 10 -13 40 -16 67 -3 26 -9 53 -14 60
-4 6 -8 21 -9 32 -6 61 -9 75 -16 75 -4 0 -7 3 -6 8 4 13 -12 109 -19 116 -4
3 -7 19 -8 34 -1 15 -6 43 -12 62 -6 19 -11 42 -11 50 -1 8 -6 33 -12 55 -6
22 -13 58 -16 79 -2 22 -8 44 -12 50 -5 6 -10 29 -11 51 -2 22 -6 45 -9 50 -7
11 -10 24 -15 65 -2 14 -6 30 -10 36 -3 6 -8 32 -12 58 -3 27 -7 52 -10 56 -2
4 -12 42 -21 86 -9 43 -18 88 -20 99 -9 39 -35 160 -40 190 -7 35 -9 42 -17
75 -4 14 -9 36 -11 50 -8 43 -36 167 -40 181 -3 8 -8 31 -11 53 -3 21 -8 42
-11 47 -3 6 -7 24 -10 42 -2 18 -7 43 -10 57 -13 56 -21 100 -18 100 1 0 -3
12 -11 27 -8 15 -12 30 -9 35 3 4 -1 34 -9 65 -24 94 -38 156 -43 183 -5 27
-19 96 -30 145 -4 17 -7 33 -6 38 1 4 -2 7 -8 7 -5 0 -7 7 -4 15 3 8 0 31 -6
51 -7 20 -14 52 -16 70 -2 19 -5 38 -8 42 -5 8 -11 39 -21 97 -2 11 -6 31 -10
45 -4 14 -8 34 -10 45 -2 11 -7 31 -10 45 -3 14 -9 43 -12 65 -3 22 -10 49
-16 60 -6 11 -11 36 -12 55 -1 19 -7 48 -14 63 -6 16 -11 38 -11 50 0 12 -5
40 -11 62 -7 22 -13 51 -14 65 -2 14 -4 26 -5 28 -3 3 -6 12 -14 57 -4 22 -12
55 -18 73 -5 17 -11 44 -12 60 -2 15 -8 46 -15 69 -6 23 -11 45 -10 50 3 9
-11 63 -19 77 -5 9 -7 23 -14 94 -1 6 -4 12 -8 12 -3 0 -7 19 -9 43 -1 23 -6
46 -12 52 -5 5 -9 24 -9 41 0 18 -5 45 -11 61 -6 15 -12 45 -14 66 -2 21 -7
42 -10 47 -3 5 -8 24 -10 42 -3 18 -11 57 -19 86 -13 49 -13 54 2 59 9 2 28 9
42 13 14 5 43 10 65 12 22 2 42 6 45 10 3 4 28 10 55 13 28 4 54 9 58 12 5 3
23 7 40 10 41 7 61 11 65 13 1 2 7 4 12 5 6 1 11 3 13 5 1 1 16 3 32 5 17 2
62 11 100 20 39 9 79 18 90 20 65 11 89 16 97 22 5 3 26 7 46 8 20 2 38 4 40
4 1 1 4 0 5 -1 2 -2 10 2 18 8 8 6 26 11 42 10 15 -1 27 1 27 5 0 3 19 10 43
14 23 4 53 9 67 12 14 2 31 5 38 5 6 1 12 4 12 7 0 3 17 7 38 9 20 1 48 6 62
11 14 6 41 12 61 14 20 3 43 8 49 12 7 5 32 9 55 10 24 1 48 5 54 9 10 7 21
10 81 21 14 3 36 7 50 10 14 4 34 8 45 9 11 2 43 9 70 15 102 25 131 31 162
35 17 2 38 8 45 12 7 4 29 9 48 10 19 1 35 3 35 4 0 3 148 37 195 46 14 2 43
8 65 14 56 13 119 24 128 22 4 -1 7 2 7 6 0 5 12 9 28 10 15 0 34 3 42 5 42
11 68 17 97 21 17 2 37 8 44 12 7 4 27 9 43 10 17 2 42 6 56 9 14 4 46 11 72
15 27 5 52 11 58 15 5 3 28 8 50 10 22 2 44 6 49 9 9 6 151 36 194 42 15 2 32
6 37 9 6 3 34 10 63 16 54 10 82 16 82 19 0 1 11 3 25 4 14 1 39 5 55 9 17 4
39 9 50 12 11 2 61 13 110 25 50 11 105 22 123 25 18 2 37 7 42 10 5 3 31 9
57 12 27 3 55 9 63 13 8 4 37 11 64 14 27 4 57 11 68 17 10 5 18 8 18 5 0 -3
37 4 105 21 11 2 30 6 42 8 11 2 30 6 41 9 11 4 36 9 57 11 20 3 41 8 47 11 5
3 24 8 41 10 31 4 60 10 162 35 28 6 59 13 70 15 26 4 62 12 83 18 9 3 33 7
52 10 19 3 50 10 69 16 19 5 37 8 39 5 3 -2 14 1 25 7 11 6 37 13 56 15 20 3
43 5 51 7 8 1 20 5 26 9 7 4 30 8 51 10 22 2 44 6 49 9 5 4 25 9 44 12 19 3
46 8 60 12 14 3 49 10 79 15 29 5 62 14 73 20 11 6 22 8 25 6 2 -3 19 -1 36 5
18 5 46 12 62 14 17 3 48 10 70 16 37 9 91 18 123 20 6 1 12 5 12 10 0 5 15 8
33 7 17 -2 42 3 54 9 12 7 26 12 30 11 4 -1 10 0 13 1 3 1 22 4 43 6 21 1 44
7 50 13 7 5 30 10 52 12 22 2 54 8 70 15 17 6 35 9 42 7 6 -2 14 0 17 6 4 6
13 8 21 4 9 -3 21 -1 28 4 6 5 30 11 52 12 22 2 42 6 45 9 6 9 37 15 75 16 17
0 32 4 35 7 3 4 25 10 50 14 25 4 50 8 55 9 6 2 24 6 40 10 17 4 49 12 72 18
23 6 55 12 70 14 37 4 56 8 68 15 6 3 26 6 45 8 19 2 43 7 53 12 9 6 22 7 27
4 6 -3 10 -2 10 2 0 5 12 8 28 8 15 -1 32 2 38 7 6 4 28 10 50 13 21 4 53 10
69 15 17 5 46 11 65 14 19 2 35 5 35 6 0 3 38 11 73 15 18 2 36 6 41 9 5 3 26
9 47 12 48 8 69 12 69 14 0 2 35 10 71 15 17 2 42 9 55 13 13 5 30 7 37 5 6
-3 12 -1 12 4 0 6 10 9 23 8 12 -1 29 1 37 5 8 4 37 11 64 14 27 4 54 10 60
14 6 3 29 8 51 9 21 2 42 7 45 11 3 4 10 8 15 8 6 1 29 5 53 8 24 3 46 7 50
10 4 2 25 7 47 11 58 10 59 10 73 19 7 4 16 6 19 3 2 -3 26 1 51 8 26 8 63 16
82 18 20 2 41 6 46 10 10 6 46 12 109 20 11 1 22 5 25 8 3 4 25 9 49 13 24 3
47 8 50 12 7 7 34 -33 37 -55z m-6069 -391 c3 -11 12 -20 19 -20 8 0 14 -6 14
-13 0 -7 8 -20 18 -28 9 -9 37 -39 62 -68 25 -29 64 -73 88 -98 23 -25 42 -46
42 -48 0 -3 18 -23 40 -46 l39 -42 -22 -16 c-25 -19 -62 -37 -94 -46 -14 -4
-20 -11 -16 -21 3 -9 -2 -14 -17 -14 -12 0 -28 -7 -37 -15 -8 -8 -18 -13 -23
-10 -4 3 -13 -2 -20 -10 -9 -10 -17 -12 -30 -5 -14 7 -19 5 -23 -10 -4 -14
-10 -18 -22 -14 -10 4 -21 1 -26 -7 -4 -8 -14 -15 -21 -15 -7 -1 -19 -2 -25
-3 -7 0 -12 -7 -10 -13 1 -7 -6 -12 -15 -10 -10 1 -29 -5 -43 -14 -14 -9 -25
-13 -25 -9 0 3 -7 -1 -16 -9 -8 -9 -24 -16 -35 -16 -11 0 -17 -4 -14 -10 3 -6
-5 -10 -19 -10 -15 0 -30 -8 -36 -20 -8 -14 -17 -19 -29 -15 -13 4 -20 -1 -24
-16 -5 -17 -9 -20 -19 -11 -11 8 -17 6 -26 -8 -9 -15 -17 -18 -35 -11 -19 7
-28 5 -40 -10 -14 -16 -26 -18 -67 -14 -28 3 -50 1 -50 -5 0 -15 -40 -32 -53
-23 -7 5 -25 6 -42 2 -16 -3 -25 -7 -20 -8 6 -1 4 -5 -4 -10 -8 -5 -32 -7 -52
-5 -29 4 -43 0 -59 -16 -17 -17 -24 -19 -43 -8 -35 19 -45 18 -62 -8 -16 -25
-60 -33 -67 -13 -5 16 -48 1 -48 -16 0 -11 -11 -13 -38 -6 -2 1 23 24 55 52
32 28 60 55 61 60 2 5 8 9 12 9 5 0 20 10 32 23 13 12 48 42 78 67 30 25 67
57 82 73 15 15 30 27 32 27 3 0 21 15 40 33 57 54 98 87 108 87 5 0 6 5 3 10
-3 6 -2 10 3 10 9 0 67 47 108 88 13 12 25 22 28 22 2 0 22 17 44 38 59 55 81
72 94 72 6 0 9 3 5 6 -3 3 24 31 61 61 37 30 69 59 70 64 2 5 8 9 13 9 5 0 24
16 42 35 36 39 66 45 74 15z m8933 -1483 c30 -2 56 -6 58 -7 1 -1 11 -4 22 -5
11 -1 21 -3 23 -5 1 -1 16 -4 32 -6 17 -3 44 -9 62 -15 17 -5 44 -12 60 -15
15 -3 32 -9 37 -15 6 -5 18 -9 28 -9 18 0 26 -3 85 -34 18 -9 34 -16 35 -16 8
3 77 -31 83 -40 4 -6 10 -8 15 -5 4 3 13 -2 20 -10 7 -8 16 -15 21 -15 26 0
189 -127 261 -204 32 -34 69 -73 83 -87 14 -14 25 -31 25 -36 0 -6 11 -22 25
-37 13 -14 22 -26 19 -26 -3 0 2 -7 10 -16 9 -8 14 -19 11 -24 -3 -5 -1 -11 5
-15 12 -8 53 -85 45 -85 -4 0 1 -10 9 -22 9 -12 16 -28 16 -35 0 -6 5 -24 12
-40 7 -15 13 -32 13 -38 1 -5 7 -30 14 -55 8 -25 16 -79 18 -120 8 -111 7
-9641 -1 -9740 -3 -47 -15 -116 -26 -155 -12 -38 -22 -74 -23 -80 -1 -5 -5
-14 -8 -20 -4 -5 -12 -27 -18 -47 -7 -21 -17 -38 -23 -38 -6 0 -8 -7 -4 -15 3
-8 2 -15 -2 -15 -5 0 -16 -16 -26 -36 -36 -76 -237 -314 -265 -314 -5 0 -15
-7 -22 -16 -20 -24 -156 -114 -190 -126 -16 -5 -29 -14 -29 -19 0 -5 -3 -8 -7
-7 -5 1 -30 -9 -58 -22 -27 -13 -54 -24 -60 -26 -22 -6 -81 -28 -104 -38 -13
-6 -29 -11 -35 -11 -6 -1 -29 -6 -51 -11 -98 -27 -149 -36 -227 -41 -107 -8
-7979 -8 -8078 0 -63 5 -153 21 -232 42 -10 3 -27 7 -37 9 -11 3 -29 9 -40 15
-11 6 -27 11 -35 11 -9 0 -35 9 -59 19 -53 25 -121 52 -125 51 -1 0 -10 6 -18
15 -9 8 -19 13 -24 10 -5 -3 -10 -2 -12 3 -1 4 -28 23 -58 42 -80 50 -104 68
-195 149 -16 14 -52 53 -80 86 -27 33 -52 62 -55 65 -7 7 -53 78 -79 123 -13
20 -19 37 -14 37 4 0 3 4 -3 8 -9 5 -40 64 -49 92 -37 120 -45 152 -47 176 -1
16 -6 35 -11 42 -6 8 -5 12 2 12 7 0 9 5 5 12 -5 7 -10 31 -12 53 -5 63 -6
9614 0 9671 3 28 9 57 13 64 6 9 4 11 -5 5 -9 -6 -11 -4 -5 5 4 7 9 25 11 39
4 35 24 111 36 136 5 12 10 27 12 35 1 8 7 25 14 37 7 12 12 28 12 37 0 8 4
16 8 18 4 2 20 28 36 58 52 102 166 240 261 315 28 22 52 43 53 48 2 4 10 7
18 7 8 0 14 4 14 9 0 5 15 16 34 25 19 9 36 20 38 24 2 4 33 23 71 41 37 18
67 38 67 43 0 5 4 7 9 4 5 -3 34 5 65 19 31 14 65 25 74 25 10 0 23 5 29 11 6
6 26 13 44 16 19 3 41 9 50 13 8 5 34 11 57 14 23 3 47 8 53 12 6 3 52 8 102
11 50 2 93 6 95 8 6 5 7956 -2 8022 -8z m-11339 -479 c6 -24 11 -43 11 -43 0
0 4 -20 9 -45 5 -25 12 -58 15 -75 3 -16 10 -48 16 -70 6 -22 13 -56 15 -75 3
-19 9 -43 14 -52 5 -9 9 -30 9 -47 0 -16 5 -42 11 -58 6 -15 13 -41 15 -58 2
-16 7 -43 11 -60 4 -16 7 -32 8 -35 1 -3 4 -18 8 -35 4 -16 10 -41 13 -55 3
-14 7 -37 8 -52 0 -16 4 -28 8 -28 5 0 7 -3 6 -7 -1 -5 2 -24 5 -43 4 -19 9
-44 11 -55 1 -11 6 -28 10 -37 4 -9 8 -31 10 -50 1 -18 5 -39 10 -46 5 -8 10
-30 12 -49 2 -19 8 -51 14 -70 7 -18 9 -40 6 -48 -3 -8 -1 -15 4 -15 6 0 9 -3
8 -7 -1 -5 4 -31 11 -60 7 -29 10 -57 6 -63 -3 -5 -1 -10 5 -10 6 0 9 -4 5 -9
-3 -5 -2 -12 3 -15 4 -2 9 -21 10 -42 2 -20 7 -46 13 -56 6 -11 8 -26 5 -34
-3 -8 -2 -14 3 -14 5 0 7 -10 7 -22 -1 -13 1 -27 5 -33 4 -5 10 -28 13 -51 4
-22 11 -55 16 -72 5 -18 6 -32 4 -32 -3 0 -2 -6 2 -12 5 -7 9 -19 9 -28 2 -22
26 -132 33 -150 7 -20 11 -40 15 -75 2 -17 7 -36 11 -43 4 -6 8 -29 10 -50 2
-22 6 -43 9 -49 4 -6 9 -28 11 -50 3 -22 10 -51 15 -64 5 -13 9 -27 9 -32 1
-29 15 -87 21 -87 3 0 6 -18 5 -40 0 -23 3 -43 8 -46 4 -3 6 -10 2 -15 -3 -5
-1 -15 4 -22 6 -7 13 -30 15 -52 2 -22 7 -47 11 -56 4 -9 8 -31 9 -50 1 -19 5
-36 8 -39 4 -3 11 -30 17 -60 5 -30 13 -66 17 -80 3 -14 8 -36 10 -50 2 -14 7
-36 11 -50 12 -51 21 -110 15 -110 -3 0 -1 -4 6 -8 7 -4 14 -28 16 -53 2 -25
9 -54 14 -65 5 -10 9 -26 8 -34 -1 -8 3 -28 8 -45 17 -60 19 -70 18 -89 0 -11
5 -28 10 -38 6 -10 12 -36 14 -56 4 -35 31 -157 35 -157 2 0 5 -20 14 -80 4
-26 28 -134 43 -190 2 -11 6 -31 8 -45 2 -14 4 -26 5 -27 1 -2 4 -7 5 -13 1
-5 4 -11 5 -12 1 -2 3 -14 5 -28 4 -33 12 -71 19 -90 3 -8 8 -28 10 -45 3 -26
26 -132 42 -200 3 -11 7 -29 9 -40 2 -11 11 -54 20 -95 9 -41 20 -92 24 -112
5 -21 6 -38 4 -38 -2 0 -1 -6 4 -12 4 -7 8 -20 10 -28 7 -50 11 -67 17 -81 4
-9 9 -29 11 -45 2 -16 4 -31 5 -34 2 -3 2 -9 1 -14 -1 -5 1 -16 5 -25 9 -21
14 -41 18 -71 2 -14 6 -35 10 -48 4 -12 9 -35 12 -50 5 -33 12 -67 14 -67 2 0
8 -26 14 -65 5 -27 13 -62 16 -70 2 -3 3 -14 4 -25 1 -11 7 -39 14 -63 7 -23
10 -47 7 -52 -3 -6 -2 -10 2 -10 5 0 9 -8 10 -17 1 -10 4 -31 8 -48 4 -16 8
-43 11 -58 2 -16 7 -34 11 -40 4 -6 8 -27 10 -47 2 -19 6 -42 10 -50 7 -18 9
-25 16 -65 7 -40 36 -175 54 -250 7 -33 14 -68 14 -78 0 -10 4 -30 10 -44 5
-14 12 -42 15 -62 4 -20 7 -40 8 -46 1 -5 4 -14 8 -20 3 -5 7 -28 9 -50 1 -22
6 -45 10 -50 4 -6 10 -29 12 -52 3 -23 10 -57 15 -75 6 -18 13 -49 15 -69 3
-20 7 -41 11 -47 3 -5 8 -27 11 -48 3 -22 8 -46 11 -54 6 -14 9 -29 18 -85 3
-13 7 -28 9 -32 3 -5 8 -30 11 -57 4 -27 10 -54 12 -58 3 -5 8 -24 10 -41 4
-27 10 -54 19 -89 2 -5 3 -9 4 -10 2 -3 10 -54 13 -85 1 -7 4 -13 8 -13 3 0 6
-10 7 -22 0 -26 7 -57 22 -105 5 -17 7 -34 4 -37 -3 -3 0 -20 8 -38 7 -18 14
-46 15 -63 1 -16 3 -31 4 -32 1 -2 4 -7 5 -13 1 -5 3 -11 5 -12 5 -7 11 -46
11 -67 -1 -12 2 -28 6 -35 8 -12 11 -23 18 -70 2 -15 8 -38 11 -50 12 -35 11
-576 -1 -576 -7 0 -7 -3 0 -8 15 -10 15 -784 0 -794 -6 -5 -6 -8 0 -8 6 0 10
-71 11 -190 0 -105 -3 -190 -7 -190 -9 0 -109 200 -109 218 0 7 -4 12 -10 12
-5 0 -10 8 -10 19 0 10 -6 24 -14 30 -8 7 -18 26 -21 42 -4 16 -11 29 -16 29
-5 0 -8 3 -7 8 2 8 -37 90 -219 462 -66 135 -137 281 -158 325 -21 44 -42 83
-48 86 -5 3 -8 9 -7 13 0 3 -9 28 -21 54 -12 26 -23 49 -24 52 -1 3 -45 94
-99 202 -53 109 -97 201 -97 205 0 4 -6 15 -13 23 -14 16 -27 45 -32 70 -2 8
-8 16 -13 18 -6 2 -11 9 -11 17 0 7 -12 33 -26 59 -14 25 -22 46 -17 46 4 0 3
4 -2 8 -9 6 -78 137 -81 152 0 3 -39 85 -87 182 -48 98 -87 182 -87 188 0 5
-3 10 -8 10 -4 0 -13 15 -21 33 -34 79 -126 263 -135 269 -6 4 -7 8 -3 8 4 0
-14 44 -42 98 -27 53 -52 107 -56 120 -3 12 -11 22 -17 22 -6 0 -9 2 -6 5 3 3
-17 49 -43 103 -27 53 -49 102 -49 109 0 7 -4 13 -10 13 -5 0 -10 5 -10 10 0
6 -30 71 -66 145 -36 74 -64 137 -64 141 1 4 -2 10 -7 13 -6 5 -63 113 -68
131 -6 20 -21 49 -37 73 -11 15 -17 27 -14 27 3 0 -10 30 -29 66 -19 37 -35
73 -35 80 0 7 -3 14 -7 16 -5 2 -22 32 -39 68 -18 36 -74 151 -125 255 -51
105 -94 192 -94 195 -2 9 -40 85 -45 90 -3 3 -6 12 -8 20 -2 8 -10 22 -18 31
-8 9 -11 19 -7 23 4 4 3 10 -4 14 -11 8 -53 94 -53 111 0 6 -3 11 -8 11 -4 0
-13 15 -21 33 -13 29 -167 348 -262 542 -21 43 -39 85 -39 91 0 7 -3 14 -7 16
-11 4 -43 67 -43 84 0 8 -4 14 -10 14 -5 0 -10 9 -10 19 0 11 -5 21 -11 23 -5
2 -11 10 -13 18 -1 8 -44 101 -95 205 -51 105 -122 249 -157 321 -35 71 -64
136 -64 142 0 7 -4 12 -8 12 -8 0 -36 60 -33 73 0 4 -3 7 -9 7 -6 0 -9 3 -8 8
1 4 -18 48 -43 97 -24 50 -44 94 -44 98 0 4 -6 11 -13 16 -8 5 -13 10 -12 12
1 2 -4 18 -11 34 -7 17 -13 33 -13 37 -1 3 -5 10 -9 15 -7 7 -36 65 -42 83 -5
19 -62 126 -68 131 -5 3 -8 8 -7 10 1 2 -14 39 -34 81 -20 42 -36 81 -36 87 0
5 -3 11 -7 13 -10 4 -53 91 -53 107 0 6 -5 11 -10 11 -6 0 -9 3 -8 8 2 8 -101
224 -111 232 -3 3 -7 10 -8 17 -1 6 -45 97 -96 202 -52 105 -93 192 -90 194 2
2 -3 10 -12 17 -8 7 -15 20 -15 29 0 9 -6 23 -12 30 -7 6 -13 15 -14 19 -1 16
-58 128 -68 134 -6 4 -7 10 -3 14 4 4 1 14 -7 23 -7 9 -25 42 -39 73 l-26 58
65 30 c36 16 70 30 75 30 5 0 9 5 9 10 0 6 3 9 8 8 4 -1 39 13 77 31 39 19
113 54 165 78 52 24 102 48 110 54 8 5 22 12 30 15 71 29 90 39 90 44 0 4 6 7
13 7 12 0 127 53 137 63 3 3 14 7 25 8 11 2 22 8 23 13 2 5 12 9 23 9 10 0 19
5 19 10 0 6 5 10 11 10 6 0 44 16 85 35 41 19 77 36 81 36 5 1 20 10 36 21 15
11 27 17 27 13 0 -3 20 6 45 20 25 14 52 25 60 25 8 0 15 4 15 9 0 5 14 12 30
16 17 4 30 11 30 17 0 6 3 8 6 5 7 -7 64 22 76 38 4 6 8 6 8 1 0 -5 7 -3 15 4
8 7 15 9 15 5 0 -5 8 -1 18 8 9 8 22 17 27 18 19 4 80 34 83 42 2 4 9 7 16 7
7 0 34 11 62 24 27 13 59 26 72 30 12 4 22 12 22 18 0 6 3 9 6 6 3 -4 36 9 74
28 38 18 74 35 81 36 8 2 20 9 27 16 7 6 22 12 33 12 10 0 19 4 19 9 0 4 21
16 48 26 26 10 55 25 65 33 9 8 17 13 17 10 0 -4 45 16 100 43 55 27 105 49
111 49 6 0 17 7 26 15 8 8 18 13 23 10 4 -3 13 2 20 10 20 24 28 18 41 -27z
m-2191 -2013 c0 -14 4 -25 10 -25 5 0 12 -11 16 -25 3 -14 10 -25 15 -25 5 0
9 -8 9 -18 0 -10 6 -24 13 -30 6 -7 12 -16 12 -20 1 -15 30 -72 37 -72 5 0 8
-7 8 -15 0 -9 7 -27 16 -40 9 -13 13 -29 10 -34 -4 -5 2 -14 11 -20 10 -6 14
-11 10 -11 -5 0 1 -15 12 -33 11 -19 18 -37 14 -40 -3 -4 2 -9 11 -13 9 -3 16
-16 16 -29 0 -13 7 -26 16 -29 8 -3 12 -10 9 -16 -3 -6 1 -17 9 -26 9 -9 14
-20 11 -24 -3 -5 3 -15 14 -22 15 -9 17 -16 10 -30 -7 -14 -6 -20 6 -24 8 -3
15 -16 15 -29 0 -13 7 -26 16 -29 8 -3 13 -10 10 -15 -4 -5 1 -16 10 -25 8 -9
13 -20 10 -25 -3 -5 1 -14 9 -21 8 -7 15 -21 15 -31 0 -10 9 -23 20 -29 11 -6
20 -16 20 -23 0 -7 36 -84 80 -172 44 -88 80 -165 80 -172 0 -6 4 -13 10 -15
5 -1 11 -15 12 -30 1 -15 8 -30 15 -32 7 -3 13 -14 13 -24 0 -11 7 -25 15 -32
8 -7 13 -16 10 -20 -3 -4 2 -13 10 -20 8 -7 15 -21 15 -32 0 -10 7 -21 15 -24
8 -4 12 -10 9 -15 -3 -6 0 -17 7 -25 7 -9 14 -23 16 -32 1 -9 8 -21 16 -27 8
-5 13 -18 11 -27 -1 -10 2 -20 7 -24 5 -3 9 -12 9 -20 0 -9 7 -22 15 -30 8 -8
12 -21 9 -29 -4 -8 1 -18 10 -21 9 -3 16 -15 16 -25 0 -10 5 -19 10 -19 6 0
10 -11 10 -25 0 -16 6 -25 15 -25 9 0 18 -8 21 -17 4 -10 15 -38 27 -63 11
-25 22 -51 23 -59 2 -8 6 -17 11 -20 8 -6 27 -43 33 -66 2 -5 14 -27 26 -47
13 -21 24 -44 24 -52 0 -7 7 -19 16 -27 8 -7 13 -21 11 -30 -3 -10 2 -20 10
-23 8 -3 12 -10 9 -15 -3 -5 4 -20 15 -35 11 -14 18 -26 14 -26 -3 0 0 -10 7
-22 7 -13 12 -27 13 -31 0 -4 6 -12 14 -16 7 -5 11 -13 8 -19 -4 -5 2 -17 13
-27 11 -10 17 -22 14 -26 -3 -5 2 -16 10 -25 9 -8 16 -24 16 -34 0 -10 5 -22
10 -25 6 -3 10 -13 10 -21 0 -9 7 -22 15 -31 8 -8 12 -19 9 -25 -4 -6 -2 -13
4 -17 6 -3 12 -13 14 -21 2 -8 9 -21 16 -28 6 -7 12 -22 12 -32 0 -10 7 -20
15 -24 8 -3 12 -12 9 -19 -3 -8 1 -17 9 -20 13 -5 62 -87 52 -87 -2 0 18 -43
46 -96 27 -53 49 -102 49 -109 0 -7 3 -15 8 -17 7 -3 22 -33 56 -110 9 -20 21
-40 26 -43 6 -4 8 -11 4 -16 -3 -6 0 -18 8 -27 21 -27 38 -61 38 -76 0 -8 5
-16 11 -18 5 -2 11 -11 12 -20 2 -9 8 -22 14 -29 5 -8 13 -27 17 -42 4 -18 11
-25 19 -20 9 5 9 3 0 -9 -11 -12 -9 -18 6 -32 11 -10 17 -24 15 -31 -3 -7 2
-15 10 -18 9 -4 16 -18 16 -32 0 -14 5 -25 10 -25 6 0 10 -7 10 -16 0 -8 7
-22 15 -31 8 -8 13 -19 9 -24 -3 -5 2 -12 10 -15 9 -3 16 -17 16 -30 0 -15 6
-24 15 -24 9 0 15 -9 15 -24 0 -13 3 -26 8 -28 8 -4 46 -78 47 -93 0 -5 6 -14
13 -18 6 -4 12 -17 12 -27 0 -11 5 -20 10 -20 6 0 10 -9 10 -20 0 -11 4 -20 8
-20 7 0 29 -47 28 -60 0 -3 7 -18 16 -35 9 -16 24 -48 34 -70 11 -22 22 -41
27 -43 4 -2 7 -9 7 -16 0 -15 51 -119 62 -126 4 -3 9 -15 11 -25 9 -46 20 -75
28 -75 5 0 9 -8 9 -19 0 -10 7 -24 15 -31 8 -7 15 -21 15 -31 0 -11 5 -19 10
-19 6 0 10 -8 10 -19 0 -10 7 -24 15 -31 10 -8 13 -21 9 -33 -4 -12 -2 -17 4
-13 6 4 16 -3 22 -14 8 -15 8 -20 -2 -20 -7 0 -4 -8 8 -18 18 -14 46 -55 49
-72 1 -3 34 -72 74 -154 40 -81 70 -151 67 -154 -3 -3 3 -11 14 -19 10 -7 17
-19 14 -27 -3 -7 2 -19 11 -26 8 -7 15 -19 15 -26 0 -8 4 -14 8 -14 4 0 8 -10
9 -22 1 -11 6 -24 10 -27 13 -10 47 -85 44 -98 -1 -7 3 -13 9 -13 5 0 10 -9
10 -20 0 -11 6 -23 14 -26 8 -3 13 -14 11 -25 -2 -11 2 -22 10 -26 8 -3 15
-13 15 -23 0 -10 7 -23 15 -30 8 -7 13 -16 10 -20 -3 -5 2 -15 10 -23 8 -9 15
-23 15 -32 0 -8 6 -18 14 -21 9 -3 12 -12 9 -21 -4 -9 0 -21 8 -27 17 -13 53
-76 43 -76 -3 0 -1 -6 5 -14 18 -21 71 -128 71 -142 0 -6 6 -17 13 -23 8 -6
19 -30 26 -53 7 -24 16 -45 20 -48 11 -9 41 -71 41 -86 0 -8 5 -14 10 -14 6 0
10 -9 10 -19 0 -11 3 -21 8 -23 7 -3 61 -110 63 -126 0 -4 6 -16 12 -27 6 -11
10 -26 9 -33 -2 -7 4 -15 12 -18 8 -3 13 -14 11 -25 -2 -12 2 -19 11 -19 8 0
14 -10 14 -24 0 -13 5 -26 11 -28 5 -2 11 -12 13 -21 1 -10 8 -22 15 -27 8 -4
11 -12 8 -18 -4 -5 2 -17 13 -27 10 -9 16 -24 13 -32 -4 -9 1 -21 10 -28 9 -6
37 -55 62 -107 25 -52 48 -98 52 -102 5 -4 8 -11 8 -14 1 -4 9 -22 19 -41 10
-18 20 -45 22 -58 3 -14 11 -32 19 -40 9 -8 13 -18 10 -23 -3 -4 2 -10 10 -14
8 -3 12 -12 9 -21 -4 -8 1 -17 10 -21 9 -3 16 -13 16 -20 0 -8 7 -26 16 -39 9
-14 12 -25 8 -25 -5 0 -1 -7 10 -15 10 -8 16 -20 13 -28 -3 -7 3 -19 14 -25
10 -7 16 -18 13 -26 -3 -7 2 -21 11 -30 9 -9 14 -20 11 -25 -3 -5 1 -14 9 -21
8 -7 15 -21 15 -31 0 -11 5 -19 10 -19 6 0 10 -8 10 -19 0 -10 7 -24 15 -31 9
-7 14 -19 11 -26 -3 -7 2 -15 11 -18 9 -4 13 -14 10 -26 -3 -11 -2 -18 2 -15
5 2 13 -7 19 -20 8 -18 8 -26 0 -31 -7 -5 -4 -10 9 -15 19 -7 22 -18 14 -47
-1 -3 -32 32 -82 92 -13 16 -40 46 -59 67 -31 34 -73 80 -150 168 -14 16 -45
52 -70 80 -25 28 -56 64 -70 79 -14 15 -54 61 -90 102 -36 40 -79 89 -97 107
-17 18 -29 33 -27 33 3 0 -6 11 -20 24 -15 13 -26 28 -26 35 0 6 -7 11 -15 11
-8 0 -15 4 -15 9 0 4 -12 21 -27 38 -16 16 -53 58 -83 92 -30 35 -66 76 -80
91 -25 28 -114 129 -160 182 -33 38 -74 83 -132 147 -27 28 -48 53 -48 56 0 2
-20 25 -44 50 -24 25 -42 45 -40 45 3 0 -1 6 -8 14 -7 8 -16 12 -20 9 -5 -2
-8 2 -8 9 0 7 -24 38 -53 69 -68 73 -127 140 -127 144 0 2 -19 23 -42 48 -44
45 -128 141 -183 205 -16 20 -38 43 -47 51 -10 9 -18 21 -18 28 0 7 -7 13 -15
13 -8 0 -15 4 -15 8 0 8 -59 77 -99 117 -12 12 -21 26 -21 33 0 7 -5 10 -10 7
-5 -3 -10 -2 -10 2 0 5 -19 29 -42 55 -84 90 -108 119 -108 128 0 6 -7 10 -15
10 -8 0 -15 3 -15 8 0 8 -20 32 -113 137 -34 38 -78 87 -97 109 -47 55 -65 75
-103 117 -45 50 -148 167 -188 213 -19 21 -45 51 -59 66 -14 15 -50 56 -80 90
-30 35 -70 79 -87 98 -18 18 -33 35 -33 37 0 2 -17 22 -37 44 -21 22 -58 64
-83 92 -25 29 -63 72 -85 96 -22 23 -53 59 -70 79 -16 20 -41 48 -55 63 -14
15 -52 58 -85 95 -33 38 -71 81 -85 96 -14 15 -50 56 -80 90 -30 35 -66 75
-79 89 -12 14 -46 52 -75 84 -28 32 -64 73 -79 90 -16 18 -48 54 -70 81 -23
27 -59 66 -79 88 -21 22 -38 43 -38 46 0 4 -9 13 -20 20 -11 7 -20 19 -20 28
0 8 -5 12 -10 9 -6 -3 -10 -3 -10 2 0 4 -19 28 -42 53 -24 25 -43 47 -43 50 0
3 -14 19 -30 36 -55 56 -125 134 -125 138 0 3 -22 27 -49 55 -27 28 -48 51
-46 51 3 0 -11 16 -30 35 -19 19 -35 38 -35 42 0 5 -11 17 -25 27 -14 10 -25
22 -25 26 0 4 -21 29 -47 57 -66 69 -123 133 -123 138 0 2 -18 23 -40 45 -22
22 -40 45 -40 50 0 6 -7 10 -15 10 -8 0 -15 6 -15 14 0 7 -11 22 -25 32 -14
10 -25 22 -25 26 0 4 -15 22 -33 41 -17 18 -57 62 -87 96 -30 35 -70 79 -87
97 -18 19 -33 37 -33 39 0 3 -22 28 -50 56 -27 28 -50 54 -50 57 -1 12 -70 82
-80 82 -6 0 -9 3 -8 8 3 9 -7 21 -79 98 -29 30 -53 58 -53 60 0 3 -7 12 -15
20 -11 12 -12 20 -5 35 6 10 14 19 18 19 4 0 23 15 43 33 20 17 60 52 89 77
29 25 66 57 82 73 16 15 31 27 33 27 2 0 15 10 28 23 13 12 48 42 77 67 29 25
63 54 74 65 12 11 46 40 76 65 30 25 66 56 81 70 80 74 99 90 99 86 0 -3 15 9
33 27 18 18 54 50 81 72 27 22 63 54 81 70 56 51 80 70 88 67 4 -1 7 5 7 13 0
8 5 15 10 15 5 0 18 8 28 18 10 9 49 44 87 77 38 33 76 68 84 78 9 9 19 17 22
17 7 0 40 29 127 110 17 17 32 27 32 23 0 -4 7 3 16 15 9 13 27 27 41 33 13 5
21 13 18 19 -3 5 -2 10 4 10 5 0 25 14 43 30 18 17 36 30 41 30 4 0 5 5 2 10
-3 6 -1 10 4 10 11 0 42 24 96 76 31 29 49 41 68 43 4 1 7 -10 7 -24z m-653
-2988 c17 -23 51 -63 75 -89 24 -25 68 -74 98 -109 30 -34 61 -68 68 -75 6 -7
12 -17 12 -23 0 -6 9 -15 20 -21 11 -6 20 -17 20 -25 0 -8 7 -15 15 -15 8 0
15 -5 15 -10 0 -6 11 -20 25 -32 13 -11 22 -25 19 -30 -3 -4 -1 -8 5 -8 12 0
61 -47 61 -58 0 -4 8 -15 18 -23 9 -9 24 -26 32 -39 8 -13 25 -34 38 -46 12
-11 22 -26 22 -33 0 -6 6 -10 13 -8 6 1 11 -4 9 -11 -1 -8 7 -16 18 -19 11 -3
20 -11 20 -19 0 -7 10 -18 22 -25 23 -12 53 -43 78 -79 8 -12 33 -41 55 -63
22 -23 39 -45 37 -49 -1 -5 5 -8 13 -8 8 0 15 -4 15 -9 0 -4 12 -21 28 -37 58
-63 91 -107 86 -115 -3 -5 4 -9 15 -9 12 0 21 -6 21 -14 0 -8 10 -22 22 -30
12 -9 19 -16 15 -16 -4 0 11 -17 33 -37 22 -21 40 -44 40 -50 0 -7 6 -13 14
-13 8 0 17 -8 20 -17 3 -10 21 -35 38 -55 63 -71 89 -103 98 -118 6 -8 10 -10
10 -5 0 6 9 -5 20 -23 11 -18 24 -31 29 -28 5 3 19 -9 32 -26 26 -34 85 -102
137 -156 17 -18 32 -35 32 -37 0 -2 15 -19 33 -38 17 -19 46 -52 64 -73 17
-22 50 -59 72 -83 23 -24 41 -45 41 -48 0 -2 16 -19 35 -39 19 -19 35 -38 35
-41 0 -3 7 -13 15 -22 69 -74 92 -101 87 -106 -3 -3 4 -8 16 -12 13 -3 22 -13
22 -24 0 -11 7 -19 16 -19 9 0 18 -9 21 -20 3 -11 11 -20 18 -20 8 0 17 -9 20
-20 3 -11 11 -20 16 -20 13 0 58 -52 59 -67 0 -6 9 -15 20 -18 11 -3 20 -10
20 -15 0 -5 17 -27 38 -48 43 -45 97 -107 129 -149 12 -15 48 -56 81 -90 33
-35 58 -63 56 -63 -3 0 7 -12 21 -27 57 -63 109 -126 96 -118 -10 5 -12 4 -7
-3 4 -7 13 -12 20 -12 7 0 18 -12 24 -26 7 -14 17 -22 22 -19 6 3 10 -1 10 -9
0 -8 9 -20 20 -26 11 -6 20 -17 20 -24 0 -8 9 -16 20 -19 11 -3 20 -9 19 -14
-4 -23 2 -35 16 -29 8 3 15 2 15 -2 0 -5 19 -29 43 -54 65 -70 127 -141 217
-247 19 -23 52 -59 72 -81 21 -22 38 -45 38 -51 0 -5 5 -7 10 -4 6 3 10 3 10
-2 0 -4 10 -20 23 -35 50 -60 57 -68 57 -73 0 -6 -53 15 -60 24 -8 12 -101 61
-116 61 -8 0 -14 4 -14 8 0 5 -16 14 -35 22 -19 8 -35 18 -35 24 0 5 -3 7 -6
3 -3 -3 -24 5 -45 19 -21 13 -39 22 -39 18 0 -3 -13 4 -30 16 -16 12 -30 18
-30 13 0 -4 -4 -3 -8 2 -4 6 -45 30 -92 53 -297 152 -345 177 -348 184 -2 5
-12 8 -22 8 -9 0 -23 7 -30 15 -7 8 -21 15 -31 15 -11 0 -19 4 -19 8 0 4 -16
14 -35 21 -19 7 -35 17 -35 22 0 6 -4 8 -8 5 -5 -3 -24 5 -43 18 -19 13 -37
24 -42 25 -17 2 -133 65 -139 75 -4 6 -8 7 -8 3 0 -4 -24 6 -54 22 -29 17 -56
27 -60 24 -3 -4 -6 -1 -6 5 0 8 -96 61 -120 66 -3 1 -12 6 -20 11 -8 5 -46 26
-85 46 -38 19 -122 62 -185 95 -63 32 -118 63 -121 67 -3 5 -9 8 -13 8 -7 -1
-79 32 -86 39 -3 3 -41 23 -85 45 -44 22 -101 52 -127 67 -27 15 -48 25 -48
22 0 -4 -6 -2 -13 4 -7 6 -46 28 -87 49 -41 21 -78 42 -82 48 -4 5 -8 6 -8 1
0 -5 -7 -2 -16 5 -9 7 -22 14 -28 15 -7 1 -30 12 -52 25 -21 13 -88 49 -149
79 -60 30 -113 60 -117 65 -5 7 -8 7 -8 0 0 -6 -3 -6 -8 0 -4 6 -34 24 -67 40
-33 15 -63 33 -67 39 -4 6 -8 7 -8 3 0 -5 -12 0 -27 11 -16 11 -32 21 -38 22
-16 4 -59 24 -65 30 -3 3 -45 25 -95 50 -49 25 -107 55 -127 68 -21 12 -38 19
-38 16 0 -4 -6 -2 -12 4 -29 22 -186 100 -192 95 -3 -4 -6 -2 -6 3 0 6 -33 26
-72 45 -40 19 -75 36 -78 39 -3 3 -32 19 -65 36 -64 32 -140 71 -165 85 -8 5
-34 17 -57 28 -45 21 -53 40 -28 61 8 7 13 16 10 20 -3 4 2 13 10 20 8 7 15
18 15 26 0 7 7 20 16 28 8 9 12 20 9 26 -3 5 -2 10 4 10 10 0 27 38 23 53 -1
4 2 7 8 7 9 0 42 62 44 83 1 4 7 11 14 16 7 4 14 17 15 29 0 12 3 19 5 17 2
-2 27 40 54 93 28 53 54 101 59 107 5 5 9 17 9 27 0 10 4 18 8 18 5 0 17 20
28 45 10 25 21 45 24 45 3 0 14 19 24 43 11 23 26 50 34 60 8 9 12 17 8 17 -4
0 2 13 13 29 12 16 21 31 21 34 0 2 18 36 39 76 22 39 37 71 34 71 -3 0 0 7 7
15 7 8 24 38 40 67 70 135 86 163 93 166 4 2 7 8 7 13 0 19 133 259 143 259 7
0 26 -20 44 -43z m4353 -4589 c0 -5 -6 -8 -14 -8 -16 0 -25 19 -18 38 3 9 8 8
18 -5 7 -10 14 -21 14 -25z"/>
<path d="M8005 12998 c-22 -5 -64 -10 -92 -11 -29 -1 -53 -5 -53 -9 0 -4 -21
-10 -47 -14 -27 -4 -65 -13 -85 -20 -21 -7 -38 -11 -38 -7 0 3 -7 0 -15 -7 -8
-7 -15 -9 -15 -5 0 4 -7 2 -15 -5 -8 -7 -22 -10 -30 -6 -8 3 -15 2 -15 -3 0
-8 -34 -21 -54 -20 -5 1 -12 -3 -15 -8 -3 -5 -28 -17 -54 -27 -96 -36 -308
-163 -369 -220 -15 -15 -30 -26 -34 -26 -17 0 -242 -244 -253 -274 -2 -6 -7
-13 -10 -16 -18 -14 -138 -229 -148 -265 -2 -5 -17 -50 -34 -100 -17 -49 -33
-106 -36 -125 -2 -19 -8 -48 -12 -65 -4 -16 -9 -59 -11 -95 -1 -36 -3 -1930
-3 -4210 0 -3128 2 -4157 11 -4195 7 -27 14 -65 17 -84 3 -19 8 -38 11 -43 3
-4 7 -17 10 -28 10 -45 14 -58 39 -120 35 -86 95 -203 109 -212 6 -4 7 -8 3
-8 -5 0 5 -17 22 -39 17 -21 28 -41 24 -45 -3 -3 -2 -6 4 -6 6 0 22 -17 36
-38 56 -83 312 -322 346 -322 6 0 11 -3 11 -8 0 -7 3 -9 83 -51 26 -14 47 -29
47 -33 0 -4 5 -8 11 -8 6 0 33 -11 60 -24 71 -36 252 -106 316 -121 10 -3 43
-10 73 -16 30 -6 62 -13 70 -16 8 -3 26 -7 40 -8 14 -1 25 -3 25 -5 0 -3 77
-9 167 -14 42 -2 82 -8 89 -12 7 -4 14 -3 17 4 2 6 10 8 18 5 23 -9 474 -9
474 0 0 5 5 5 11 1 16 -9 101 -10 117 -1 6 5 12 5 12 0 0 -10 91 -10 108 1 6
4 12 4 12 -1 0 -10 91 -10 108 1 6 4 12 4 12 -1 0 -10 91 -10 108 1 6 4 12 4
12 -1 0 -4 104 -8 230 -8 127 0 230 4 230 8 0 5 5 5 11 1 16 -9 101 -10 117
-1 6 5 12 5 12 0 0 -10 91 -10 108 1 6 4 12 4 12 -1 0 -10 91 -10 108 1 6 4
12 4 12 -1 0 -10 91 -10 108 1 6 4 12 4 12 -1 0 -4 32 -8 70 -8 39 0 70 4 70
8 0 5 5 5 11 1 16 -9 101 -10 117 -1 6 5 12 5 12 0 0 -10 91 -10 108 1 6 4 12
4 12 -1 0 -10 91 -10 108 1 6 4 12 4 12 -1 0 -10 91 -10 108 1 6 4 12 4 12 -1
0 -4 104 -8 230 -8 127 0 230 4 230 8 0 5 5 5 11 1 16 -9 101 -10 117 -1 6 5
12 5 12 0 0 -10 91 -10 108 1 6 4 12 4 12 -1 0 -10 91 -10 108 1 6 4 12 4 12
-1 0 -10 91 -10 108 1 6 4 12 4 12 -1 0 -4 104 -8 230 -8 127 0 230 4 230 8 0
5 5 5 11 1 16 -9 101 -10 117 -1 6 5 12 5 12 0 0 -10 91 -10 108 1 6 4 12 4
12 -1 0 -10 91 -10 108 1 6 4 12 4 12 -1 0 -10 91 -10 108 1 6 4 12 4 12 -1 0
-4 104 -8 230 -8 127 0 230 4 230 8 0 5 5 5 11 1 16 -9 101 -10 117 -1 6 5 12
5 12 0 0 -10 91 -10 108 1 6 4 12 4 12 -1 0 -10 91 -10 108 1 6 4 12 4 12 -1
0 -10 91 -10 108 1 6 4 12 4 12 -1 0 -4 104 -8 230 -8 127 0 230 4 230 8 0 5
5 5 11 1 16 -9 101 -10 117 -1 6 5 12 5 12 0 0 -10 91 -10 108 1 6 4 12 4 12
-1 0 -10 91 -10 108 1 6 4 12 4 12 -1 0 -10 91 -10 108 1 6 4 12 3 12 -2 0 -6
8 -8 18 -6 9 2 62 6 117 9 166 8 176 10 314 41 36 8 77 17 90 20 13 3 31 9 40
13 9 5 33 11 54 15 20 4 37 10 37 14 0 4 8 8 19 9 22 2 172 68 221 99 19 11
37 21 40 21 8 -1 173 110 197 133 13 11 23 18 23 14 0 -4 48 42 108 102 98
100 230 268 224 287 -1 4 2 7 8 7 5 0 10 4 10 10 0 5 13 32 30 60 16 28 33 62
36 75 3 14 10 25 16 25 5 0 6 5 3 10 -4 6 -2 16 3 23 8 9 32 80 47 137 10 37
15 60 19 85 3 17 9 46 14 65 12 49 12 8410 0 8458 -5 21 -11 52 -13 70 -9 74
-65 232 -122 347 -22 44 -120 202 -133 215 -3 3 -32 36 -65 75 -69 80 -115
123 -205 195 -36 28 -73 57 -82 65 -10 8 -18 12 -18 9 0 -3 -15 6 -33 20 -19
15 -39 26 -45 26 -7 0 -12 5 -12 11 0 5 -4 8 -9 4 -5 -3 -13 -1 -16 5 -4 6
-24 18 -46 27 -21 8 -39 18 -39 22 0 4 -21 13 -47 20 -27 8 -55 19 -63 26 -8
6 -55 24 -105 39 -49 16 -97 31 -105 33 -35 12 -148 34 -190 37 -25 2 -63 9
-85 15 -51 14 -6829 14 -6890 -1z m6903 -221 c7 -5 19 -6 27 -3 8 3 15 2 15
-2 0 -4 21 -8 46 -10 26 -1 52 -6 58 -10 6 -3 13 -7 16 -7 56 -8 100 -18 100
-24 0 -4 6 -8 13 -9 6 0 23 -3 37 -7 14 -4 31 -7 38 -7 6 -1 12 -5 12 -10 0
-4 3 -7 8 -6 29 7 352 -171 352 -194 0 -4 6 -8 13 -8 7 0 43 -29 81 -65 37
-36 72 -65 77 -65 5 0 9 -6 9 -13 0 -7 10 -23 23 -34 28 -25 52 -55 66 -81 6
-11 17 -26 24 -34 29 -29 118 -200 119 -228 0 -3 5 -11 11 -18 6 -8 12 -21 13
-30 3 -18 23 -97 32 -122 2 -8 7 -33 11 -55 8 -57 7 -8402 -1 -8450 -9 -51
-27 -126 -35 -145 -3 -8 -8 -23 -10 -33 -2 -10 -9 -28 -15 -40 -7 -12 -11 -28
-10 -35 2 -6 -1 -12 -7 -12 -8 0 -34 -53 -35 -75 -1 -5 -9 -18 -18 -28 -10 -9
-18 -24 -18 -32 0 -8 -4 -15 -10 -15 -5 0 -10 -6 -10 -14 0 -8 -3 -16 -7 -18
-5 -1 -28 -30 -52 -63 -89 -120 -314 -316 -344 -299 -6 4 -9 4 -5 -1 8 -8 -50
-51 -64 -47 -3 1 -12 -5 -18 -13 -7 -8 -21 -15 -31 -15 -11 0 -19 -4 -19 -8 0
-8 -52 -32 -84 -38 -11 -3 -24 -8 -30 -13 -15 -11 -74 -32 -111 -38 -16 -3
-32 -9 -35 -14 -3 -5 -24 -10 -45 -12 -22 -1 -45 -6 -52 -10 -6 -4 -35 -10
-65 -13 -29 -3 -62 -8 -73 -12 -11 -3 -32 -7 -47 -8 -16 -1 -29 -2 -30 -4 -6
-5 -78 -5 -78 0 0 3 -9 6 -20 6 -11 0 -20 -3 -20 -7 0 -3 -19 -4 -42 -2 -52 5
-58 5 -83 0 -11 -2 -23 1 -27 7 -6 8 -8 8 -8 0 0 -7 -16 -10 -42 -7 -52 5 -58
5 -83 0 -11 -2 -23 1 -27 7 -6 8 -8 8 -8 0 0 -7 -16 -10 -42 -7 -52 5 -58 5
-83 0 -11 -2 -23 1 -27 7 -6 8 -8 8 -8 0 0 -7 -16 -10 -42 -7 -24 2 -47 4 -53
3 -67 -5 -113 -4 -127 2 -10 5 -18 5 -18 0 0 -5 -19 -7 -42 -5 -24 2 -47 4
-53 4 -74 -6 -205 -4 -205 2 0 5 -5 5 -12 1 -17 -10 -129 -11 -150 -1 -10 4
-18 4 -18 -1 0 -5 -19 -7 -42 -5 -24 2 -47 4 -53 4 -74 -6 -205 -4 -205 2 0 5
-5 5 -12 1 -17 -10 -129 -11 -150 -1 -10 4 -18 4 -18 -1 0 -5 -19 -7 -42 -5
-24 2 -47 4 -53 3 -67 -5 -113 -4 -127 2 -10 5 -18 5 -18 0 0 -5 -19 -7 -42
-5 -52 5 -58 5 -83 0 -11 -2 -23 1 -27 7 -6 8 -8 8 -8 0 0 -7 -16 -10 -42 -7
-52 5 -58 5 -83 0 -11 -2 -23 1 -27 7 -6 8 -8 8 -8 0 0 -7 -16 -10 -42 -7 -52
5 -58 5 -83 0 -11 -2 -23 1 -27 7 -6 8 -8 8 -8 0 0 -7 -16 -10 -42 -7 -24 2
-47 4 -53 3 -67 -5 -113 -4 -127 2 -10 5 -18 5 -18 0 0 -5 -19 -7 -42 -5 -24
2 -47 4 -53 4 -74 -6 -205 -4 -205 2 0 5 -5 5 -12 1 -17 -10 -129 -11 -150 -1
-10 4 -18 4 -18 -1 0 -5 -19 -7 -42 -5 -24 2 -47 4 -53 4 -74 -6 -205 -4 -205
2 0 5 -5 5 -12 1 -17 -10 -129 -11 -150 -1 -10 4 -18 4 -18 -1 0 -5 -19 -7
-42 -5 -24 2 -47 4 -53 3 -67 -5 -113 -4 -127 2 -10 5 -18 5 -18 0 0 -5 -19
-7 -42 -5 -52 5 -58 5 -83 0 -11 -2 -23 1 -27 7 -6 8 -8 8 -8 0 0 -7 -16 -10
-42 -7 -52 5 -58 5 -83 0 -11 -2 -23 1 -27 7 -6 8 -8 8 -8 0 0 -7 -16 -10 -42
-7 -52 5 -58 5 -83 0 -11 -2 -23 1 -27 7 -6 8 -8 8 -8 0 0 -7 -16 -10 -42 -7
-52 5 -58 5 -83 0 -11 -2 -23 1 -27 7 -6 8 -8 8 -8 0 0 -7 -16 -10 -42 -7 -52
5 -58 5 -83 0 -11 -2 -23 1 -27 7 -6 8 -8 8 -8 0 0 -7 -16 -10 -42 -7 -52 5
-58 5 -83 0 -11 -2 -23 1 -27 7 -6 8 -8 8 -8 0 0 -7 -16 -10 -42 -7 -52 5 -58
5 -83 0 -11 -2 -23 1 -27 7 -6 8 -8 8 -8 0 0 -7 -16 -10 -42 -7 -24 2 -47 4
-53 3 -67 -5 -113 -4 -127 2 -10 5 -18 5 -18 0 0 -5 -19 -7 -42 -5 -24 2 -47
4 -53 4 -74 -6 -205 -4 -205 2 0 5 -5 5 -12 1 -17 -10 -129 -11 -150 -1 -10 4
-18 4 -18 -1 0 -5 -19 -7 -42 -5 -24 2 -47 4 -53 4 -74 -6 -205 -4 -205 2 0 5
-5 5 -12 1 -17 -10 -129 -11 -150 -1 -10 4 -18 4 -18 -1 0 -5 -19 -7 -42 -5
-24 2 -47 4 -53 3 -67 -5 -113 -4 -127 2 -10 5 -18 5 -18 0 0 -5 -17 -7 -37
-5 -53 5 -54 5 -91 0 -18 -2 -35 -1 -38 4 -2 4 -15 4 -28 -1 -13 -5 -26 -7
-28 -5 -2 3 -20 7 -39 10 -36 5 -74 13 -74 15 0 0 -27 3 -59 5 -33 3 -62 8
-65 13 -3 4 -19 8 -36 10 -28 3 -51 9 -100 28 -11 4 -22 8 -25 8 -3 1 -11 5
-18 10 -7 4 -16 6 -18 3 -3 -3 -32 8 -65 24 -32 16 -66 29 -74 29 -8 0 -15 4
-15 9 0 5 -11 12 -25 15 -14 4 -25 11 -25 17 0 6 -4 8 -9 4 -5 -3 -16 2 -24
10 -9 8 -23 15 -31 15 -9 0 -16 4 -16 10 0 5 -15 16 -34 25 -19 9 -42 25 -52
36 -9 10 -21 19 -25 19 -14 0 -136 115 -201 188 -74 84 -188 283 -214 372 -11
37 -18 50 -27 50 -7 0 -7 4 1 12 8 8 9 15 1 25 -7 7 -9 13 -5 13 3 0 1 12 -6
28 -6 15 -13 59 -17 97 -7 86 -8 8274 -1 8367 3 37 9 70 12 73 4 4 4 13 2 20
-3 7 0 16 5 20 6 3 9 10 7 14 -3 4 4 32 15 62 12 30 20 54 19 54 -8 0 73 169
83 173 4 2 7 8 7 13 0 10 78 126 105 156 11 11 40 44 65 72 25 28 51 51 58 51
6 0 12 6 12 13 0 7 18 24 40 37 22 14 40 28 40 32 0 3 17 17 38 29 20 13 46
31 56 41 10 9 23 15 27 12 4 -2 11 1 14 7 9 13 183 99 202 99 7 0 13 5 13 12
0 6 3 8 7 5 3 -4 12 -2 20 4 7 6 13 8 13 5 0 -4 9 -2 21 4 11 7 32 14 47 16
14 3 30 8 36 12 11 6 19 8 61 16 11 3 47 10 80 16 33 7 70 13 82 14 13 2 25 5
28 8 8 8 6890 3 6903 -5z"/>
<path d="M8975 11694 c-71 -39 -66 47 -66 -1230 0 -878 3 -1162 12 -1182 6
-15 23 -36 37 -46 25 -19 80 -20 2466 -20 1343 -1 2457 2 2477 5 37 6 69 31
84 65 13 27 15 2316 2 2332 -5 6 -6 12 -3 12 16 0 -38 62 -63 72 -18 8 -722
12 -2468 12 l-2441 1 -37 -21z m4800 -1234 l0 -1035 -30 2 c-73 6 -4585 4
-4594 -1 -5 -4 -13 -1 -17 6 -10 16 -12 2040 -2 2054 6 8 669 10 2325 10
l2318 -1 0 -1035z"/>
<path d="M9563 11086 c-12 -18 -11 -86 1 -93 6 -4 858 -8 1894 -8 1814 0 1882
1 1888 18 3 10 3 21 0 24 -3 4 -1 12 5 20 9 9 8 13 0 13 -6 0 -10 3 -10 8 1 4
1 12 0 18 -1 14 -3769 15 -3778 0z"/>
<path d="M9577 10602 c-10 -2 -15 -8 -12 -13 4 -5 2 -9 -3 -9 -4 0 -8 -18 -8
-39 0 -22 4 -37 8 -35 4 3 8 0 8 -5 0 -8 565 -11 1885 -11 1037 0 1885 1 1886
3 9 33 8 97 -3 103 -12 8 -3723 13 -3761 6z"/>
<path d="M9564 10141 c-10 -23 -11 -64 -3 -82 7 -14 193 -15 1886 -15 1033 1
1884 5 1891 9 15 10 13 85 -2 94 -17 11 -336 9 -336 -2 0 -7 -3 -7 -8 0 -4 6
-25 9 -47 8 -52 -4 -33 -4 -243 -1 -116 2 -182 -1 -182 -7 0 -7 -3 -7 -8 0 -4
6 -25 9 -47 8 -51 -4 -18 -4 -323 -1 -170 2 -262 -1 -262 -7 0 -7 -3 -7 -8 0
-4 6 -25 9 -47 8 -53 -4 -41 -4 -203 -1 -90 2 -142 -1 -142 -7 0 -7 -3 -7 -8
0 -6 9 -59 12 -87 5 -5 -1 -14 -1 -20 0 -25 6 -41 4 -47 -5 -5 -7 -8 -6 -8 1
0 9 -53 11 -85 4 -5 -1 -14 -1 -20 0 -25 6 -41 4 -47 -5 -5 -7 -8 -6 -8 1 0 9
-53 11 -85 4 -5 -1 -14 -1 -20 0 -25 6 -41 4 -47 -5 -5 -7 -8 -6 -8 1 0 6 -17
9 -42 7 -56 -4 -53 -4 -125 0 -40 2 -63 -1 -63 -7 0 -7 -3 -8 -8 -1 -4 6 -25
9 -47 8 -52 -4 -33 -4 -243 -1 -116 2 -182 -1 -182 -7 0 -7 -3 -7 -8 0 -4 6
-25 9 -47 8 -52 -4 -33 -4 -243 -1 -116 2 -182 -1 -182 -7 0 -7 -3 -7 -8 0 -4
6 -25 9 -47 8 -22 -2 -44 -3 -50 -4 -5 0 -36 2 -67 4 -45 3 -59 0 -64 -12z"/>
<path d="M8965 8521 c-22 -3 -59 -6 -82 -6 -24 0 -43 -2 -43 -5 0 -3 -15 -6
-32 -6 -18 -1 -49 -4 -68 -8 -19 -4 -61 -11 -92 -17 -32 -5 -70 -13 -85 -16
-16 -3 -36 -6 -45 -7 -10 0 -18 -5 -18 -10 0 -5 -2 -7 -5 -4 -3 3 -43 -5 -88
-19 -45 -13 -86 -25 -92 -26 -26 -7 -75 -33 -75 -40 0 -5 -4 -6 -9 -3 -10 7
-76 -54 -108 -100 -12 -17 -41 -60 -65 -95 -23 -35 -48 -70 -55 -77 -6 -6 -15
-21 -18 -32 -3 -11 -11 -20 -16 -20 -6 0 -8 -4 -4 -9 3 -5 -1 -15 -8 -23 -35
-37 -55 -120 -36 -154 11 -21 60 -42 84 -35 5 1 23 4 40 7 43 6 56 9 88 22 16
7 32 12 37 12 5 0 30 7 56 16 25 9 54 17 63 19 9 3 43 12 76 21 73 20 69 19
180 44 102 23 147 31 190 34 17 1 35 5 40 8 13 8 195 21 195 14 0 -8 -132
-181 -142 -184 -4 -2 -8 -10 -8 -17 0 -7 -3 -15 -7 -17 -5 -1 -55 -66 -113
-143 -58 -77 -109 -145 -115 -151 -5 -6 -17 -21 -25 -33 -12 -18 -52 -36 -105
-46 -36 -8 -151 -51 -157 -60 -4 -5 -8 -7 -8 -3 0 3 -30 -9 -67 -27 -77 -38
-143 -94 -167 -143 -18 -35 -28 -120 -16 -127 4 -3 10 -17 13 -33 3 -16 28
-52 56 -81 l50 -52 -46 -77 c-25 -42 -53 -88 -61 -102 -9 -14 -15 -27 -13 -29
1 -2 -1 -7 -6 -10 -5 -3 -20 -28 -33 -56 -14 -27 -28 -51 -32 -53 -5 -2 -8 -8
-8 -13 0 -4 -11 -32 -24 -61 -83 -184 -63 -307 54 -328 60 -11 113 6 163 54
47 43 179 216 224 293 32 55 36 119 9 138 -18 14 -15 55 5 55 5 0 8 3 7 8 -1
4 11 29 28 55 l29 48 55 -6 c95 -9 435 -6 435 5 0 1 25 4 55 6 99 8 115 10
128 18 7 4 12 5 12 3 0 -4 77 11 140 27 100 25 123 32 175 52 11 4 22 8 25 9
65 23 313 147 330 165 3 3 32 27 65 52 95 73 181 161 232 240 15 23 30 45 33
48 6 6 54 102 56 113 1 4 3 10 4 15 1 4 2 11 1 15 -1 4 5 10 13 13 8 3 13 11
10 18 -3 7 2 33 9 57 19 56 18 52 20 194 2 131 -3 172 -32 260 -8 22 -22 52
-32 66 -10 14 -16 29 -13 31 6 7 -130 148 -143 148 -5 0 -18 8 -29 18 -10 10
-23 19 -27 19 -5 0 -27 10 -50 21 -38 19 -68 31 -89 37 -5 2 -9 3 -10 5 -3 2
-4 2 -91 23 -59 15 -65 16 -69 18 -2 0 -14 2 -28 4 -14 2 -43 7 -65 10 -57 9
-562 14 -610 6z m490 -490 c6 -3 26 -6 45 -7 43 -2 103 -11 153 -23 20 -5 37
-7 37 -4 0 2 6 1 13 -4 6 -4 21 -9 32 -10 56 -8 180 -68 204 -99 25 -31 21
-84 -9 -149 -13 -27 -22 -54 -21 -58 1 -5 -3 -6 -8 -3 -5 4 -13 -3 -16 -14 -7
-21 -171 -190 -185 -190 -4 0 -18 -9 -30 -20 -13 -12 -49 -35 -80 -52 -30 -18
-58 -36 -62 -42 -4 -6 -8 -7 -8 -2 0 4 -11 1 -25 -8 -13 -9 -31 -16 -38 -16
-8 0 -20 -6 -27 -14 -6 -8 -18 -12 -26 -9 -8 3 -14 0 -14 -7 0 -6 -5 -8 -10
-5 -6 4 -16 3 -23 -2 -13 -10 -74 -29 -122 -37 -16 -3 -41 -8 -55 -11 -60 -14
-297 -26 -314 -17 -6 3 -25 7 -44 8 -18 1 -36 5 -39 8 -7 7 24 56 35 55 4 -1
9 0 12 1 3 1 16 3 30 4 14 1 30 4 35 8 6 3 28 9 50 13 22 5 45 9 52 11 110 22
161 92 105 144 -12 12 -22 19 -22 16 0 -2 -16 0 -35 4 -19 4 -35 5 -35 1 0
-11 -63 -7 -67 4 -2 6 8 22 22 38 14 15 23 27 20 27 -4 0 0 7 7 15 32 36 119
155 113 155 -3 0 3 8 13 18 32 35 52 62 52 72 0 6 7 13 15 16 8 4 15 10 15 16
0 5 11 24 24 41 14 18 25 37 26 42 2 6 6 20 11 33 5 13 9 32 9 43 0 18 6 20
88 18 48 -2 92 -5 97 -8z"/>
<path d="M11900 8519 c-19 -6 -44 -11 -55 -13 -11 -2 -20 -4 -20 -5 0 -2 -7
-4 -15 -6 -44 -12 -115 -40 -118 -47 -2 -4 -10 -8 -18 -8 -17 0 -157 -71 -162
-82 -2 -5 -12 -8 -22 -8 -10 0 -20 -3 -22 -8 -1 -4 -37 -27 -78 -51 -41 -25
-76 -48 -78 -53 -2 -4 -8 -8 -13 -8 -15 0 -225 -152 -363 -263 -210 -169 -463
-432 -592 -613 -27 -38 -51 -71 -54 -74 -10 -9 -86 -133 -110 -180 -12 -25
-27 -48 -32 -51 -5 -3 -9 -9 -8 -13 1 -4 -11 -32 -26 -63 -14 -31 -28 -64 -29
-72 -2 -9 -4 -17 -5 -18 -2 -2 -3 -6 -5 -10 -1 -5 -7 -21 -13 -36 -7 -16 -12
-34 -12 -41 0 -7 -3 -16 -7 -20 -4 -4 -8 -13 -8 -19 0 -7 -6 -37 -12 -67 -7
-30 -14 -80 -17 -110 -2 -30 -5 -59 -6 -65 -1 -5 -2 -12 -1 -15 2 -3 4 -27 6
-55 3 -27 8 -66 11 -85 4 -19 9 -42 10 -50 5 -27 48 -114 78 -160 53 -80 160
-168 241 -197 17 -6 39 -15 50 -19 26 -10 21 -8 90 -23 58 -13 256 -11 315 3
114 27 166 42 240 69 47 17 88 35 91 40 3 5 8 7 11 5 7 -4 112 45 120 57 5 7
8 7 8 0 0 -6 3 -6 8 0 4 6 26 19 50 29 23 11 42 22 42 25 0 4 12 12 28 19 31
14 45 22 127 77 33 22 66 45 73 52 7 7 17 13 21 13 4 0 16 8 27 18 10 9 53 42
94 74 41 31 86 66 100 78 14 12 50 43 80 68 30 26 104 97 166 157 120 119 142
158 145 257 2 43 -16 87 -29 73 -3 -3 -11 0 -19 6 -10 9 -17 8 -30 -2 -30 -24
-76 -63 -95 -81 -10 -10 -22 -18 -27 -18 -5 0 -11 -4 -13 -8 -5 -13 -186 -152
-198 -152 -5 0 -10 -4 -10 -8 0 -4 -13 -16 -30 -25 -16 -10 -35 -23 -42 -30
-15 -14 -216 -145 -268 -174 -19 -11 -59 -34 -87 -51 -29 -17 -53 -28 -53 -24
0 4 -4 2 -8 -3 -6 -8 -96 -57 -112 -61 -3 0 -23 -9 -45 -19 -22 -10 -42 -19
-45 -20 -3 -1 -36 -11 -75 -24 -86 -28 -96 -30 -165 -37 -30 -3 -60 -7 -67 -9
-6 -2 -14 -1 -17 3 -4 3 -20 7 -35 8 -38 3 -110 36 -138 62 -29 29 -74 127
-67 146 3 9 2 16 -3 16 -9 0 -8 134 2 185 9 48 12 59 18 75 3 8 8 28 12 45 4
16 14 47 24 70 10 22 27 61 37 87 10 27 22 48 27 48 4 0 7 7 7 15 0 28 171
292 214 330 6 6 22 24 35 40 67 87 353 385 436 455 163 136 247 200 265 200 5
0 10 4 10 9 0 7 215 123 223 120 1 -1 20 4 42 9 22 6 57 14 79 18 l39 7 -7
-39 c-18 -99 -150 -285 -333 -471 l-81 -83 -34 19 c-32 20 -34 20 -73 2 -22
-10 -49 -27 -61 -37 -12 -11 -56 -50 -99 -89 -114 -102 -118 -105 -181 -160
-66 -57 -89 -80 -124 -121 -29 -34 -64 -94 -55 -94 3 0 1 -9 -5 -20 -17 -33
-18 -93 -2 -135 30 -76 103 -123 187 -119 115 6 314 107 490 250 11 8 44 34
73 57 62 49 270 260 327 332 22 28 44 53 48 56 5 3 16 18 25 32 9 14 36 52 59
85 75 108 158 275 180 364 3 13 7 59 9 103 6 118 -22 202 -93 273 -29 30 -53
51 -53 48 0 -4 -18 3 -40 14 -23 11 -45 18 -50 15 -5 -3 -11 -1 -14 4 -8 12
-171 12 -216 0z"/>
<path d="M13824 8491 c-2 -2 -32 -6 -67 -8 -34 -2 -80 -6 -102 -8 -97 -12
-152 -17 -172 -16 -13 0 -23 -3 -23 -7 0 -4 -15 -8 -32 -8 -18 -1 -73 -9 -123
-18 -111 -22 -120 -24 -120 -26 0 -1 -10 -4 -22 -6 -43 -8 -58 -11 -73 -17 -8
-3 -28 -9 -45 -13 -28 -7 -36 -9 -67 -17 -7 -2 -26 -9 -41 -15 -16 -7 -33 -12
-39 -12 -32 0 -236 -104 -279 -142 -53 -48 -162 -232 -162 -275 0 -7 -5 -13
-10 -13 -6 0 -8 -3 -4 -6 3 -3 -1 -24 -9 -46 -15 -43 -24 -128 -14 -128 4 0
12 -11 20 -24 14 -28 46 -43 105 -51 50 -8 54 -8 85 -2 14 3 57 8 95 12 39 3
80 9 92 12 12 2 41 7 65 9 44 4 132 13 178 19 14 1 37 3 52 4 14 0 40 12 57
26 23 20 28 32 25 52 -7 37 -10 41 -52 62 l-36 19 49 11 c28 6 57 13 65 15 56
16 150 32 155 28 3 -3 5 -1 5 4 0 5 20 10 45 11 45 2 48 -2 22 -32 -9 -11 -51
-72 -134 -195 -31 -47 -59 -87 -62 -90 -14 -12 -51 -70 -51 -79 0 -5 -4 -11
-8 -13 -5 -1 -30 -34 -57 -73 -26 -38 -49 -71 -50 -73 -1 -2 -20 -5 -41 -7
-70 -7 -221 -48 -234 -64 -3 -3 -18 -13 -33 -21 -66 -33 -190 -191 -172 -219
3 -5 1 -12 -5 -16 -5 -3 -10 -21 -10 -40 0 -40 33 -82 84 -110 39 -21 44 -36
21 -55 -8 -7 -15 -16 -15 -21 0 -4 -38 -69 -85 -144 -47 -75 -85 -139 -85
-142 0 -3 -13 -25 -30 -49 -38 -58 -70 -127 -75 -166 -2 -16 -6 -33 -9 -36 -3
-3 -1 -11 5 -19 6 -7 8 -13 5 -13 -4 0 0 -13 9 -28 31 -52 101 -64 180 -31 17
7 33 12 38 11 4 -1 7 2 7 8 0 5 7 10 15 10 8 0 15 5 15 10 0 6 5 10 11 10 28
0 97 107 101 155 1 20 8 41 15 47 7 6 13 16 13 23 0 8 3 15 8 17 4 2 36 46 71
98 35 52 79 116 98 142 l33 46 53 -20 c28 -10 57 -21 62 -22 6 -2 23 -8 38
-14 16 -7 30 -12 32 -12 2 0 16 -5 32 -12 15 -6 33 -12 38 -14 11 -3 251 -91
275 -101 8 -3 17 -7 20 -8 3 -1 12 -5 20 -8 29 -12 135 -51 145 -53 9 -2 178
-65 215 -81 19 -8 42 -14 58 -15 6 -1 12 -5 12 -10 0 -4 7 -8 15 -8 9 0 32 -7
53 -17 20 -9 39 -17 42 -18 40 -10 80 -29 80 -36 0 -6 4 -7 10 -4 5 3 20 0 32
-7 13 -7 25 -13 28 -13 3 -1 23 -9 45 -19 115 -51 212 -69 252 -47 37 19 66
88 68 160 3 133 -47 260 -123 313 -26 18 -50 32 -54 30 -5 -1 -8 2 -8 7 0 13
-211 100 -350 145 -63 21 -122 40 -130 43 -8 4 -17 7 -20 8 -3 0 -39 12 -80
25 -41 13 -78 25 -82 26 -5 1 -9 2 -10 4 -2 1 -10 3 -18 5 -8 2 -37 11 -65 20
-27 10 -54 18 -60 19 -11 2 -112 35 -135 43 -8 4 -18 7 -22 8 -5 2 -10 4 -13
5 -3 1 -8 3 -12 4 -61 16 -93 29 -93 36 0 6 3 9 8 9 4 -1 9 -1 12 0 3 1 21 4
40 6 19 2 49 7 65 10 17 4 41 8 55 11 14 2 50 8 80 14 30 6 66 12 80 14 14 2
25 5 25 6 0 1 11 3 25 5 14 2 63 10 110 19 116 22 152 28 173 29 9 1 17 5 17
10 0 4 4 6 8 3 6 -4 61 6 172 31 14 3 33 6 43 7 9 0 17 4 17 8 0 4 3 7 8 6 13
-3 122 25 122 31 0 4 8 7 18 8 9 1 44 14 77 29 33 15 63 27 68 26 4 -1 7 2 7
7 0 5 14 14 30 21 17 7 30 16 30 21 0 4 9 11 20 14 22 7 150 131 150 145 0 5
6 15 13 22 20 20 92 174 102 218 1 3 7 32 15 65 19 86 16 180 -9 245 -21 57
-96 158 -118 159 -6 1 -13 5 -15 10 -4 11 -138 84 -138 75 0 -4 -6 -2 -13 4
-15 13 -119 42 -197 57 -40 7 -90 13 -165 21 -77 7 -474 12 -481 5z m721 -494
c26 -4 76 -17 95 -24 8 -4 18 -6 22 -5 4 1 6 -11 5 -26 -3 -45 -123 -148 -224
-193 -18 -7 -33 -18 -33 -22 0 -5 -4 -5 -10 -2 -5 3 -10 1 -10 -4 0 -6 -5 -11
-10 -11 -6 0 -27 -7 -48 -17 -20 -9 -40 -15 -44 -15 -5 1 -8 -2 -8 -8 0 -5 -3
-9 -7 -8 -5 1 -32 -6 -61 -16 -29 -10 -61 -19 -70 -21 -9 -2 -17 -4 -17 -5 0
-1 -7 -3 -15 -5 -8 -2 -25 -6 -37 -9 -13 -3 -31 -8 -40 -10 -10 -2 -43 -11
-73 -20 -30 -8 -69 -18 -87 -21 -18 -3 -45 -10 -60 -17 -15 -6 -31 -11 -34
-10 -4 1 -22 -3 -40 -9 -19 -6 -41 -12 -49 -14 -8 -2 -53 -13 -99 -25 -46 -11
-85 -19 -87 -17 -7 7 7 37 17 37 5 0 9 7 9 15 0 8 4 15 9 15 5 0 13 10 17 22
3 12 11 26 16 32 23 26 177 270 173 275 -3 2 0 9 5 16 5 6 12 22 14 36 3 13 5
25 7 27 1 1 2 6 3 11 2 19 16 23 93 27 172 8 211 12 222 18 6 4 11 2 11 -4 0
-7 6 -8 18 -2 9 5 46 10 82 11 36 1 66 4 68 6 4 4 246 -3 277 -8z"/>
<path d="M7902 5791 c-51 -26 -65 -51 -76 -128 -5 -42 37 -109 78 -123 19 -7
1127 -10 3415 -10 3341 0 3386 0 3418 20 18 10 39 33 48 50 17 32 18 97 2 118
-5 6 -6 12 -1 12 21 0 -53 60 -80 66 -17 3 -1549 6 -3404 7 -2878 2 -3377 0
-3400 -12z"/>
<path d="M10357 5254 c-2 -2 -147 -5 -321 -6 -368 -2 -347 4 -352 -105 -6
-117 -14 -247 -18 -278 -10 -85 -18 -134 -27 -170 -19 -77 -19 -97 -1 -119 17
-21 23 -21 252 -20 129 1 240 2 247 3 6 0 11 19 11 44 1 77 14 281 19 290 5 8
19 -6 99 -100 23 -26 50 -58 60 -70 11 -11 25 -29 32 -40 7 -10 30 -43 51 -73
l39 -55 256 0 c227 -1 256 1 256 15 0 9 5 21 11 27 17 17 -1 40 -110 138 -54
50 -100 93 -100 97 -1 3 23 11 52 18 77 17 157 57 194 97 18 19 33 35 34 36 0
1 3 22 6 46 13 107 -85 178 -287 207 -19 3 -111 7 -205 9 -93 3 -175 7 -182 9
-6 3 -13 3 -16 0z m123 -218 c14 -2 28 -4 33 -5 4 0 7 -5 7 -10 0 -8 -23 -20
-52 -27 -5 -1 -9 -2 -10 -4 -5 -3 -100 -10 -180 -13 -42 -1 -80 -5 -84 -9 -16
-16 -23 -7 -20 26 2 19 6 38 9 43 6 9 239 8 297 -1z"/>
<path d="M13775 5251 c-4 -3 -23 -7 -43 -7 -82 -4 -172 -20 -307 -57 -200 -55
-322 -166 -329 -298 -1 -27 1 -49 5 -49 3 0 9 -14 13 -30 6 -31 96 -130 118
-130 6 0 19 -6 27 -13 15 -13 101 -48 118 -49 5 0 15 -4 24 -9 9 -4 27 -10 40
-13 13 -3 49 -10 79 -16 134 -28 222 -34 475 -33 260 1 334 7 465 35 30 6 60
12 65 13 6 1 13 3 18 5 4 1 10 3 15 4 43 10 130 46 183 77 147 85 200 209 140
327 -21 42 -95 112 -118 112 -7 0 -13 4 -13 8 0 12 -114 56 -195 76 -38 9 -81
20 -95 25 -14 4 -40 7 -57 6 -18 0 -33 2 -33 5 0 9 -69 12 -347 15 -133 2
-245 0 -248 -4z m395 -216 c14 -3 38 -9 54 -11 36 -7 118 -52 131 -73 18 -30
16 -66 -5 -89 -11 -12 -17 -22 -13 -23 4 0 -3 -5 -17 -11 -14 -6 -28 -10 -32
-10 -5 1 -8 -2 -8 -7 0 -9 -13 -14 -80 -32 -196 -52 -506 -10 -552 74 -19 34
-19 54 -2 71 8 9 13 16 9 16 -17 0 30 33 77 55 54 24 83 32 153 42 22 3 41 6
43 8 5 5 217 -4 242 -10z"/>
<path d="M7932 5226 c-15 -16 -19 -37 -20 -87 -1 -36 -4 -92 -7 -125 -10 -105
-16 -165 -21 -187 -2 -12 -7 -42 -10 -67 -3 -25 -10 -63 -15 -85 -13 -60 -11
-82 11 -102 17 -17 41 -19 272 -18 l253 0 1 35 c1 19 3 37 4 40 2 4 6 68 9
143 l1 27 243 0 c134 0 246 -2 249 -5 3 -3 1 -29 -3 -58 -5 -28 -10 -65 -11
-80 -1 -16 -6 -31 -10 -33 -8 -5 20 -63 32 -65 3 -1 113 -2 244 -3 283 -2 275
-5 277 103 2 98 3 115 12 128 4 6 3 14 -3 18 -6 4 -8 10 -5 15 3 4 7 34 10 67
6 68 13 120 19 148 2 11 7 48 11 83 4 34 11 65 16 68 5 2 -3 18 -17 33 l-26
29 -236 -1 c-285 -1 -271 5 -277 -125 -3 -48 -5 -92 -6 -98 -2 -7 -79 -10
-248 -9 -238 1 -246 2 -243 20 1 11 4 34 7 50 4 35 15 94 18 104 1 3 -7 18
-18 32 l-21 26 -236 0 c-229 1 -237 0 -256 -21z"/>
<path d="M11239 5233 c-1 -7 -2 -16 -3 -20 -1 -5 -6 -41 -10 -80 -4 -40 -11
-73 -15 -73 -3 0 -6 -12 -7 -27 0 -16 -4 -46 -8 -68 -4 -22 -9 -49 -10 -60 -2
-11 -8 -38 -14 -60 -12 -44 -24 -110 -25 -137 -1 -10 -4 -18 -7 -18 -4 0 -7
-6 -8 -12 0 -7 -4 -29 -7 -48 -5 -27 -2 -40 12 -56 17 -19 28 -20 220 -20 111
1 204 3 206 6 3 3 8 39 11 80 4 63 14 134 29 222 9 49 15 40 120 -162 l76
-145 220 0 c122 -1 221 2 221 5 0 3 13 19 28 36 15 18 34 42 42 54 8 12 20 28
25 34 6 6 24 29 40 51 17 22 35 45 40 51 6 6 19 23 30 39 11 15 30 39 42 54
l22 26 -4 -55 c-2 -30 -6 -82 -10 -115 -3 -33 -8 -78 -10 -101 -4 -32 0 -45
16 -60 19 -17 40 -19 217 -20 237 0 231 -3 233 115 0 42 2 92 4 111 2 19 6 85
9 145 4 61 9 130 11 155 15 127 15 127 -8 147 -21 19 -36 20 -327 21 -285 0
-306 -2 -323 -19 -9 -10 -16 -20 -15 -23 2 -2 -41 -57 -95 -122 -132 -159
-127 -153 -127 -165 0 -20 -20 3 -39 44 -11 23 -31 59 -45 80 -14 21 -26 42
-26 46 0 5 -9 20 -21 35 -11 14 -17 26 -12 26 4 0 2 4 -4 8 -7 4 -19 26 -26
47 l-14 40 -327 1 c-266 1 -326 -2 -327 -13z"/>
<path d="M12987 14869 c7 -7 15 -10 18 -7 3 3 -2 9 -12 12 -14 6 -15 5 -6 -5z"/>
</g>
</svg>
